<mxfile host="app.diagrams.net" agent="Mozilla/5.0 (Windows NT 10.0; Win64; x64) AppleWebKit/537.36 (KHTML, like Gecko) Chrome/141.0.0.0 Safari/537.36 Edg/141.0.0.0" version="28.2.8">
  <diagram name="Página-1" id="-rs5WHVn_h_AIMl12oCN">
    <mxGraphModel dx="2680" dy="1931" grid="0" gridSize="10" guides="1" tooltips="1" connect="1" arrows="1" fold="1" page="0" pageScale="1" pageWidth="827" pageHeight="1169" math="0" shadow="0">
      <root>
        <mxCell id="0" />
        <mxCell id="1" parent="0" />
        <mxCell id="sczfLH8FIDFucL3i_VIs-1" value="id_usuario" style="ellipse;whiteSpace=wrap;html=1;align=center;fontStyle=4;" vertex="1" parent="1">
          <mxGeometry x="380" y="-653" width="100" height="40" as="geometry" />
        </mxCell>
        <mxCell id="sczfLH8FIDFucL3i_VIs-2" value="nombre_usuario" style="ellipse;whiteSpace=wrap;html=1;align=center;" vertex="1" parent="1">
          <mxGeometry x="211" y="-565" width="100" height="40" as="geometry" />
        </mxCell>
        <mxCell id="sczfLH8FIDFucL3i_VIs-3" value="contraseña" style="ellipse;whiteSpace=wrap;html=1;align=center;" vertex="1" parent="1">
          <mxGeometry x="311" y="-605" width="100" height="40" as="geometry" />
        </mxCell>
        <mxCell id="sczfLH8FIDFucL3i_VIs-4" value="email" style="ellipse;whiteSpace=wrap;html=1;align=center;" vertex="1" parent="1">
          <mxGeometry x="549" y="-453" width="100" height="40" as="geometry" />
        </mxCell>
        <mxCell id="sczfLH8FIDFucL3i_VIs-5" value="rol" style="ellipse;whiteSpace=wrap;html=1;align=center;" vertex="1" parent="1">
          <mxGeometry x="557" y="-565" width="100" height="40" as="geometry" />
        </mxCell>
        <mxCell id="sczfLH8FIDFucL3i_VIs-6" value="estado" style="ellipse;whiteSpace=wrap;html=1;align=center;" vertex="1" parent="1">
          <mxGeometry x="435" y="-441" width="100" height="40" as="geometry" />
        </mxCell>
        <mxCell id="sczfLH8FIDFucL3i_VIs-7" value="fecha_creacion" style="ellipse;whiteSpace=wrap;html=1;align=center;" vertex="1" parent="1">
          <mxGeometry x="500" y="-628" width="100" height="40" as="geometry" />
        </mxCell>
        <mxCell id="sczfLH8FIDFucL3i_VIs-8" value="ultimo_acceso" style="ellipse;whiteSpace=wrap;html=1;align=center;" vertex="1" parent="1">
          <mxGeometry x="249" y="-481" width="100" height="40" as="geometry" />
        </mxCell>
        <mxCell id="sczfLH8FIDFucL3i_VIs-24" style="edgeStyle=none;curved=1;rounded=0;orthogonalLoop=1;jettySize=auto;html=1;exitX=1;exitY=0.5;exitDx=0;exitDy=0;entryX=-0.014;entryY=0.105;entryDx=0;entryDy=0;fontSize=12;startSize=8;endSize=8;strokeColor=default;endArrow=none;endFill=0;entryPerimeter=0;" edge="1" parent="1" source="sczfLH8FIDFucL3i_VIs-25" target="sczfLH8FIDFucL3i_VIs-11">
          <mxGeometry relative="1" as="geometry" />
        </mxCell>
        <mxCell id="sczfLH8FIDFucL3i_VIs-27" style="edgeStyle=none;curved=1;rounded=0;orthogonalLoop=1;jettySize=auto;html=1;exitX=0.25;exitY=1;exitDx=0;exitDy=0;entryX=0.5;entryY=0;entryDx=0;entryDy=0;fontSize=12;startSize=8;endSize=8;endArrow=none;endFill=0;" edge="1" parent="1" source="sczfLH8FIDFucL3i_VIs-43" target="sczfLH8FIDFucL3i_VIs-14">
          <mxGeometry relative="1" as="geometry" />
        </mxCell>
        <mxCell id="sczfLH8FIDFucL3i_VIs-71" style="edgeStyle=none;curved=1;rounded=0;orthogonalLoop=1;jettySize=auto;html=1;exitX=0;exitY=0.25;exitDx=0;exitDy=0;entryX=1;entryY=0.5;entryDx=0;entryDy=0;fontSize=12;startSize=8;endSize=8;endArrow=none;endFill=0;" edge="1" parent="1" source="sczfLH8FIDFucL3i_VIs-10" target="sczfLH8FIDFucL3i_VIs-2">
          <mxGeometry relative="1" as="geometry" />
        </mxCell>
        <mxCell id="sczfLH8FIDFucL3i_VIs-72" style="edgeStyle=none;curved=1;rounded=0;orthogonalLoop=1;jettySize=auto;html=1;exitX=0.25;exitY=0;exitDx=0;exitDy=0;entryX=1;entryY=1;entryDx=0;entryDy=0;fontSize=12;startSize=8;endSize=8;endArrow=none;endFill=0;" edge="1" parent="1" source="sczfLH8FIDFucL3i_VIs-10" target="sczfLH8FIDFucL3i_VIs-3">
          <mxGeometry relative="1" as="geometry" />
        </mxCell>
        <mxCell id="sczfLH8FIDFucL3i_VIs-73" style="edgeStyle=none;curved=1;rounded=0;orthogonalLoop=1;jettySize=auto;html=1;exitX=0.75;exitY=1;exitDx=0;exitDy=0;fontSize=12;startSize=8;endSize=8;endArrow=none;endFill=0;" edge="1" parent="1" source="sczfLH8FIDFucL3i_VIs-10" target="sczfLH8FIDFucL3i_VIs-4">
          <mxGeometry relative="1" as="geometry" />
        </mxCell>
        <mxCell id="sczfLH8FIDFucL3i_VIs-74" style="edgeStyle=none;curved=1;rounded=0;orthogonalLoop=1;jettySize=auto;html=1;exitX=1;exitY=0;exitDx=0;exitDy=0;fontSize=12;startSize=8;endSize=8;endArrow=none;endFill=0;" edge="1" parent="1" source="sczfLH8FIDFucL3i_VIs-10" target="sczfLH8FIDFucL3i_VIs-5">
          <mxGeometry relative="1" as="geometry" />
        </mxCell>
        <mxCell id="sczfLH8FIDFucL3i_VIs-75" style="edgeStyle=none;curved=1;rounded=0;orthogonalLoop=1;jettySize=auto;html=1;exitX=0.5;exitY=1;exitDx=0;exitDy=0;entryX=0.5;entryY=0;entryDx=0;entryDy=0;fontSize=12;startSize=8;endSize=8;endArrow=none;endFill=0;" edge="1" parent="1" source="sczfLH8FIDFucL3i_VIs-10" target="sczfLH8FIDFucL3i_VIs-6">
          <mxGeometry relative="1" as="geometry" />
        </mxCell>
        <mxCell id="sczfLH8FIDFucL3i_VIs-76" style="edgeStyle=none;curved=1;rounded=0;orthogonalLoop=1;jettySize=auto;html=1;exitX=0.75;exitY=0;exitDx=0;exitDy=0;fontSize=12;startSize=8;endSize=8;endArrow=none;endFill=0;" edge="1" parent="1" source="sczfLH8FIDFucL3i_VIs-10" target="sczfLH8FIDFucL3i_VIs-7">
          <mxGeometry relative="1" as="geometry" />
        </mxCell>
        <mxCell id="sczfLH8FIDFucL3i_VIs-77" style="edgeStyle=none;curved=1;rounded=0;orthogonalLoop=1;jettySize=auto;html=1;exitX=0;exitY=0.75;exitDx=0;exitDy=0;fontSize=12;startSize=8;endSize=8;entryX=1;entryY=0.5;entryDx=0;entryDy=0;endArrow=none;endFill=0;" edge="1" parent="1" source="sczfLH8FIDFucL3i_VIs-10" target="sczfLH8FIDFucL3i_VIs-8">
          <mxGeometry relative="1" as="geometry" />
        </mxCell>
        <mxCell id="sczfLH8FIDFucL3i_VIs-10" value="Usuario" style="whiteSpace=wrap;html=1;align=center;fillColor=#ADD8E6;" vertex="1" parent="1">
          <mxGeometry x="422" y="-520" width="100" height="40" as="geometry" />
        </mxCell>
        <mxCell id="sczfLH8FIDFucL3i_VIs-28" style="edgeStyle=none;curved=1;rounded=0;orthogonalLoop=1;jettySize=auto;html=1;exitX=1;exitY=0.5;exitDx=0;exitDy=0;entryX=0;entryY=0.5;entryDx=0;entryDy=0;fontSize=12;startSize=8;endSize=8;endArrow=none;endFill=0;" edge="1" parent="1" source="sczfLH8FIDFucL3i_VIs-45" target="sczfLH8FIDFucL3i_VIs-15">
          <mxGeometry relative="1" as="geometry" />
        </mxCell>
        <mxCell id="sczfLH8FIDFucL3i_VIs-34" style="edgeStyle=none;curved=1;rounded=0;orthogonalLoop=1;jettySize=auto;html=1;exitX=0.5;exitY=1;exitDx=0;exitDy=0;fontSize=12;startSize=8;endSize=8;endArrow=none;endFill=0;" edge="1" parent="1" source="sczfLH8FIDFucL3i_VIs-57" target="sczfLH8FIDFucL3i_VIs-20">
          <mxGeometry relative="1" as="geometry" />
        </mxCell>
        <mxCell id="sczfLH8FIDFucL3i_VIs-91" style="edgeStyle=none;curved=1;rounded=0;orthogonalLoop=1;jettySize=auto;html=1;exitX=0;exitY=0.5;exitDx=0;exitDy=0;entryX=1;entryY=0.5;entryDx=0;entryDy=0;fontSize=12;startSize=8;endSize=8;endArrow=none;endFill=0;" edge="1" parent="1" source="sczfLH8FIDFucL3i_VIs-11" target="sczfLH8FIDFucL3i_VIs-89">
          <mxGeometry relative="1" as="geometry" />
        </mxCell>
        <mxCell id="sczfLH8FIDFucL3i_VIs-92" style="edgeStyle=none;curved=1;rounded=0;orthogonalLoop=1;jettySize=auto;html=1;exitX=0.25;exitY=0;exitDx=0;exitDy=0;entryX=1;entryY=1;entryDx=0;entryDy=0;fontSize=12;startSize=8;endSize=8;endArrow=none;endFill=0;" edge="1" parent="1" source="sczfLH8FIDFucL3i_VIs-11" target="sczfLH8FIDFucL3i_VIs-88">
          <mxGeometry relative="1" as="geometry" />
        </mxCell>
        <mxCell id="sczfLH8FIDFucL3i_VIs-93" style="edgeStyle=none;curved=1;rounded=0;orthogonalLoop=1;jettySize=auto;html=1;exitX=0.5;exitY=0;exitDx=0;exitDy=0;entryX=1;entryY=1;entryDx=0;entryDy=0;fontSize=12;startSize=8;endSize=8;endArrow=none;endFill=0;" edge="1" parent="1" source="sczfLH8FIDFucL3i_VIs-11" target="sczfLH8FIDFucL3i_VIs-80">
          <mxGeometry relative="1" as="geometry" />
        </mxCell>
        <mxCell id="sczfLH8FIDFucL3i_VIs-96" style="edgeStyle=none;curved=1;rounded=0;orthogonalLoop=1;jettySize=auto;html=1;exitX=1;exitY=0;exitDx=0;exitDy=0;entryX=0;entryY=1;entryDx=0;entryDy=0;fontSize=12;startSize=8;endSize=8;endArrow=none;endFill=0;" edge="1" parent="1" source="sczfLH8FIDFucL3i_VIs-11" target="sczfLH8FIDFucL3i_VIs-86">
          <mxGeometry relative="1" as="geometry" />
        </mxCell>
        <mxCell id="sczfLH8FIDFucL3i_VIs-97" style="edgeStyle=none;curved=1;rounded=0;orthogonalLoop=1;jettySize=auto;html=1;exitX=1;exitY=0.25;exitDx=0;exitDy=0;entryX=0;entryY=0.5;entryDx=0;entryDy=0;fontSize=12;startSize=8;endSize=8;endArrow=none;endFill=0;" edge="1" parent="1" source="sczfLH8FIDFucL3i_VIs-11" target="sczfLH8FIDFucL3i_VIs-83">
          <mxGeometry relative="1" as="geometry" />
        </mxCell>
        <mxCell id="sczfLH8FIDFucL3i_VIs-98" style="edgeStyle=none;curved=1;rounded=0;orthogonalLoop=1;jettySize=auto;html=1;exitX=1;exitY=0.5;exitDx=0;exitDy=0;entryX=0;entryY=0.5;entryDx=0;entryDy=0;fontSize=12;startSize=8;endSize=8;endArrow=none;endFill=0;" edge="1" parent="1" source="sczfLH8FIDFucL3i_VIs-11" target="sczfLH8FIDFucL3i_VIs-81">
          <mxGeometry relative="1" as="geometry" />
        </mxCell>
        <mxCell id="sczfLH8FIDFucL3i_VIs-99" style="edgeStyle=none;curved=1;rounded=0;orthogonalLoop=1;jettySize=auto;html=1;exitX=1;exitY=0.5;exitDx=0;exitDy=0;fontSize=12;startSize=8;endSize=8;entryX=0;entryY=0.5;entryDx=0;entryDy=0;endArrow=none;endFill=0;" edge="1" parent="1" source="sczfLH8FIDFucL3i_VIs-11" target="sczfLH8FIDFucL3i_VIs-82">
          <mxGeometry relative="1" as="geometry" />
        </mxCell>
        <mxCell id="sczfLH8FIDFucL3i_VIs-100" style="edgeStyle=none;curved=1;rounded=0;orthogonalLoop=1;jettySize=auto;html=1;exitX=1;exitY=0.5;exitDx=0;exitDy=0;entryX=0;entryY=0.5;entryDx=0;entryDy=0;fontSize=12;startSize=8;endSize=8;endArrow=none;endFill=0;" edge="1" parent="1" source="sczfLH8FIDFucL3i_VIs-11" target="sczfLH8FIDFucL3i_VIs-84">
          <mxGeometry relative="1" as="geometry" />
        </mxCell>
        <mxCell id="sczfLH8FIDFucL3i_VIs-102" style="edgeStyle=none;curved=1;rounded=0;orthogonalLoop=1;jettySize=auto;html=1;exitX=0;exitY=0.75;exitDx=0;exitDy=0;entryX=1;entryY=0.5;entryDx=0;entryDy=0;fontSize=12;startSize=8;endSize=8;endArrow=none;endFill=0;" edge="1" parent="1" source="sczfLH8FIDFucL3i_VIs-11" target="sczfLH8FIDFucL3i_VIs-85">
          <mxGeometry relative="1" as="geometry" />
        </mxCell>
        <mxCell id="sczfLH8FIDFucL3i_VIs-11" value="Paciente" style="whiteSpace=wrap;html=1;align=center;fillColor=#ADD8E6;" vertex="1" parent="1">
          <mxGeometry x="1023" y="-413" width="100" height="40" as="geometry" />
        </mxCell>
        <mxCell id="sczfLH8FIDFucL3i_VIs-29" style="edgeStyle=none;curved=1;rounded=0;orthogonalLoop=1;jettySize=auto;html=1;exitX=0.5;exitY=1;exitDx=0;exitDy=0;entryX=0;entryY=0.5;entryDx=0;entryDy=0;fontSize=12;startSize=8;endSize=8;endArrow=none;endFill=0;" edge="1" parent="1" source="sczfLH8FIDFucL3i_VIs-47" target="sczfLH8FIDFucL3i_VIs-16">
          <mxGeometry relative="1" as="geometry" />
        </mxCell>
        <mxCell id="sczfLH8FIDFucL3i_VIs-31" style="edgeStyle=none;curved=1;rounded=0;orthogonalLoop=1;jettySize=auto;html=1;exitX=0;exitY=1;exitDx=0;exitDy=0;entryX=0.75;entryY=0;entryDx=0;entryDy=0;fontSize=12;startSize=8;endSize=8;endArrow=none;endFill=0;" edge="1" parent="1" source="sczfLH8FIDFucL3i_VIs-51" target="sczfLH8FIDFucL3i_VIs-18">
          <mxGeometry relative="1" as="geometry" />
        </mxCell>
        <mxCell id="sczfLH8FIDFucL3i_VIs-35" style="edgeStyle=none;curved=1;rounded=0;orthogonalLoop=1;jettySize=auto;html=1;exitX=1;exitY=0.75;exitDx=0;exitDy=0;entryX=0;entryY=0;entryDx=0;entryDy=0;fontSize=12;startSize=8;endSize=8;endArrow=none;endFill=0;" edge="1" parent="1" source="sczfLH8FIDFucL3i_VIs-59" target="sczfLH8FIDFucL3i_VIs-20">
          <mxGeometry relative="1" as="geometry" />
        </mxCell>
        <mxCell id="sczfLH8FIDFucL3i_VIs-126" style="edgeStyle=none;curved=1;rounded=0;orthogonalLoop=1;jettySize=auto;html=1;exitX=0;exitY=0.75;exitDx=0;exitDy=0;entryX=1;entryY=0.5;entryDx=0;entryDy=0;fontSize=12;startSize=8;endSize=8;endArrow=none;endFill=0;" edge="1" parent="1" source="sczfLH8FIDFucL3i_VIs-14" target="sczfLH8FIDFucL3i_VIs-121">
          <mxGeometry relative="1" as="geometry" />
        </mxCell>
        <mxCell id="sczfLH8FIDFucL3i_VIs-128" style="edgeStyle=none;curved=1;rounded=0;orthogonalLoop=1;jettySize=auto;html=1;exitX=0;exitY=0.5;exitDx=0;exitDy=0;entryX=1;entryY=1;entryDx=0;entryDy=0;fontSize=12;startSize=8;endSize=8;endArrow=none;endFill=0;" edge="1" parent="1" source="sczfLH8FIDFucL3i_VIs-14" target="sczfLH8FIDFucL3i_VIs-119">
          <mxGeometry relative="1" as="geometry" />
        </mxCell>
        <mxCell id="sczfLH8FIDFucL3i_VIs-130" style="edgeStyle=none;curved=1;rounded=0;orthogonalLoop=1;jettySize=auto;html=1;exitX=0;exitY=0;exitDx=0;exitDy=0;entryX=0.5;entryY=1;entryDx=0;entryDy=0;fontSize=12;startSize=8;endSize=8;endArrow=none;endFill=0;" edge="1" parent="1" source="sczfLH8FIDFucL3i_VIs-14" target="sczfLH8FIDFucL3i_VIs-117">
          <mxGeometry relative="1" as="geometry" />
        </mxCell>
        <mxCell id="sczfLH8FIDFucL3i_VIs-131" style="edgeStyle=none;curved=1;rounded=0;orthogonalLoop=1;jettySize=auto;html=1;exitX=0.25;exitY=0;exitDx=0;exitDy=0;entryX=0.5;entryY=1;entryDx=0;entryDy=0;fontSize=12;startSize=8;endSize=8;endArrow=none;endFill=0;" edge="1" parent="1" source="sczfLH8FIDFucL3i_VIs-14" target="sczfLH8FIDFucL3i_VIs-116">
          <mxGeometry relative="1" as="geometry" />
        </mxCell>
        <mxCell id="sczfLH8FIDFucL3i_VIs-132" style="edgeStyle=none;curved=1;rounded=0;orthogonalLoop=1;jettySize=auto;html=1;exitX=0.5;exitY=0;exitDx=0;exitDy=0;entryX=0;entryY=1;entryDx=0;entryDy=0;fontSize=12;startSize=8;endSize=8;endArrow=none;endFill=0;" edge="1" parent="1" source="sczfLH8FIDFucL3i_VIs-14" target="sczfLH8FIDFucL3i_VIs-115">
          <mxGeometry relative="1" as="geometry" />
        </mxCell>
        <mxCell id="sczfLH8FIDFucL3i_VIs-133" style="edgeStyle=none;curved=1;rounded=0;orthogonalLoop=1;jettySize=auto;html=1;exitX=0.75;exitY=0;exitDx=0;exitDy=0;entryX=0;entryY=1;entryDx=0;entryDy=0;fontSize=12;startSize=8;endSize=8;endArrow=none;endFill=0;" edge="1" parent="1" source="sczfLH8FIDFucL3i_VIs-14" target="sczfLH8FIDFucL3i_VIs-114">
          <mxGeometry relative="1" as="geometry" />
        </mxCell>
        <mxCell id="sczfLH8FIDFucL3i_VIs-134" style="edgeStyle=none;curved=1;rounded=0;orthogonalLoop=1;jettySize=auto;html=1;exitX=1;exitY=0;exitDx=0;exitDy=0;entryX=0;entryY=1;entryDx=0;entryDy=0;fontSize=12;startSize=8;endSize=8;endArrow=none;endFill=0;" edge="1" parent="1" source="sczfLH8FIDFucL3i_VIs-14" target="sczfLH8FIDFucL3i_VIs-113">
          <mxGeometry relative="1" as="geometry" />
        </mxCell>
        <mxCell id="sczfLH8FIDFucL3i_VIs-14" value="Medico" style="whiteSpace=wrap;html=1;align=center;fillColor=#ADD8E6;" vertex="1" parent="1">
          <mxGeometry x="-35" y="-373" width="100" height="40" as="geometry" />
        </mxCell>
        <mxCell id="sczfLH8FIDFucL3i_VIs-108" style="edgeStyle=none;curved=1;rounded=0;orthogonalLoop=1;jettySize=auto;html=1;exitX=0;exitY=0;exitDx=0;exitDy=0;fontSize=12;startSize=8;endSize=8;entryX=0.5;entryY=1;entryDx=0;entryDy=0;endArrow=none;endFill=0;" edge="1" parent="1" source="sczfLH8FIDFucL3i_VIs-15" target="sczfLH8FIDFucL3i_VIs-106">
          <mxGeometry relative="1" as="geometry" />
        </mxCell>
        <mxCell id="sczfLH8FIDFucL3i_VIs-109" style="edgeStyle=none;curved=1;rounded=0;orthogonalLoop=1;jettySize=auto;html=1;exitX=0.5;exitY=0;exitDx=0;exitDy=0;entryX=0;entryY=1;entryDx=0;entryDy=0;fontSize=12;startSize=8;endSize=8;endArrow=none;endFill=0;" edge="1" parent="1" source="sczfLH8FIDFucL3i_VIs-15" target="sczfLH8FIDFucL3i_VIs-103">
          <mxGeometry relative="1" as="geometry" />
        </mxCell>
        <mxCell id="sczfLH8FIDFucL3i_VIs-110" style="edgeStyle=none;curved=1;rounded=0;orthogonalLoop=1;jettySize=auto;html=1;exitX=1;exitY=0.5;exitDx=0;exitDy=0;entryX=0;entryY=0.5;entryDx=0;entryDy=0;fontSize=12;startSize=8;endSize=8;endArrow=none;endFill=0;" edge="1" parent="1" source="sczfLH8FIDFucL3i_VIs-15" target="sczfLH8FIDFucL3i_VIs-104">
          <mxGeometry relative="1" as="geometry" />
        </mxCell>
        <mxCell id="sczfLH8FIDFucL3i_VIs-111" style="edgeStyle=none;curved=1;rounded=0;orthogonalLoop=1;jettySize=auto;html=1;exitX=0.75;exitY=1;exitDx=0;exitDy=0;entryX=1;entryY=0;entryDx=0;entryDy=0;fontSize=12;startSize=8;endSize=8;endArrow=none;endFill=0;" edge="1" parent="1" source="sczfLH8FIDFucL3i_VIs-15" target="sczfLH8FIDFucL3i_VIs-105">
          <mxGeometry relative="1" as="geometry" />
        </mxCell>
        <mxCell id="sczfLH8FIDFucL3i_VIs-112" style="edgeStyle=none;curved=1;rounded=0;orthogonalLoop=1;jettySize=auto;html=1;exitX=0;exitY=1;exitDx=0;exitDy=0;entryX=1;entryY=0;entryDx=0;entryDy=0;fontSize=12;startSize=8;endSize=8;endArrow=none;endFill=0;" edge="1" parent="1" source="sczfLH8FIDFucL3i_VIs-15" target="sczfLH8FIDFucL3i_VIs-107">
          <mxGeometry relative="1" as="geometry" />
        </mxCell>
        <mxCell id="sczfLH8FIDFucL3i_VIs-15" value="Paciente_Telefono" style="whiteSpace=wrap;html=1;align=center;fillColor=#ADD8E6;" vertex="1" parent="1">
          <mxGeometry x="1511" y="-289" width="118" height="40" as="geometry" />
        </mxCell>
        <mxCell id="sczfLH8FIDFucL3i_VIs-150" style="edgeStyle=none;curved=1;rounded=0;orthogonalLoop=1;jettySize=auto;html=1;exitX=0;exitY=0.75;exitDx=0;exitDy=0;fontSize=12;startSize=8;endSize=8;entryX=1;entryY=0.5;entryDx=0;entryDy=0;endArrow=none;endFill=0;" edge="1" parent="1" source="sczfLH8FIDFucL3i_VIs-16" target="sczfLH8FIDFucL3i_VIs-149">
          <mxGeometry relative="1" as="geometry" />
        </mxCell>
        <mxCell id="sczfLH8FIDFucL3i_VIs-151" style="edgeStyle=none;curved=1;rounded=0;orthogonalLoop=1;jettySize=auto;html=1;exitX=0.75;exitY=1;exitDx=0;exitDy=0;entryX=0.5;entryY=0;entryDx=0;entryDy=0;fontSize=12;startSize=8;endSize=8;endArrow=none;endFill=0;" edge="1" parent="1" source="sczfLH8FIDFucL3i_VIs-16" target="sczfLH8FIDFucL3i_VIs-145">
          <mxGeometry relative="1" as="geometry" />
        </mxCell>
        <mxCell id="sczfLH8FIDFucL3i_VIs-152" style="edgeStyle=none;curved=1;rounded=0;orthogonalLoop=1;jettySize=auto;html=1;exitX=1;exitY=0.75;exitDx=0;exitDy=0;entryX=0;entryY=0.5;entryDx=0;entryDy=0;fontSize=12;startSize=8;endSize=8;endArrow=none;endFill=0;" edge="1" parent="1" source="sczfLH8FIDFucL3i_VIs-16" target="sczfLH8FIDFucL3i_VIs-146">
          <mxGeometry relative="1" as="geometry" />
        </mxCell>
        <mxCell id="sczfLH8FIDFucL3i_VIs-153" style="edgeStyle=none;curved=1;rounded=0;orthogonalLoop=1;jettySize=auto;html=1;exitX=1;exitY=0;exitDx=0;exitDy=0;entryX=0;entryY=1;entryDx=0;entryDy=0;fontSize=12;startSize=8;endSize=8;endArrow=none;endFill=0;" edge="1" parent="1" source="sczfLH8FIDFucL3i_VIs-16" target="sczfLH8FIDFucL3i_VIs-147">
          <mxGeometry relative="1" as="geometry" />
        </mxCell>
        <mxCell id="sczfLH8FIDFucL3i_VIs-154" style="edgeStyle=none;curved=1;rounded=0;orthogonalLoop=1;jettySize=auto;html=1;exitX=0.5;exitY=0;exitDx=0;exitDy=0;entryX=0.5;entryY=1;entryDx=0;entryDy=0;fontSize=12;startSize=8;endSize=8;endArrow=none;endFill=0;" edge="1" parent="1" source="sczfLH8FIDFucL3i_VIs-16" target="sczfLH8FIDFucL3i_VIs-148">
          <mxGeometry relative="1" as="geometry" />
        </mxCell>
        <mxCell id="sczfLH8FIDFucL3i_VIs-16" value="Medico_Especialidad" style="whiteSpace=wrap;html=1;align=center;fillColor=#ADD8E6;" vertex="1" parent="1">
          <mxGeometry x="392" y="31" width="122" height="40" as="geometry" />
        </mxCell>
        <mxCell id="sczfLH8FIDFucL3i_VIs-30" style="edgeStyle=none;curved=1;rounded=0;orthogonalLoop=1;jettySize=auto;html=1;exitX=0.75;exitY=0;exitDx=0;exitDy=0;entryX=0.5;entryY=1;entryDx=0;entryDy=0;fontSize=12;startSize=8;endSize=8;endArrow=none;endFill=0;" edge="1" parent="1" source="sczfLH8FIDFucL3i_VIs-49" target="sczfLH8FIDFucL3i_VIs-16">
          <mxGeometry relative="1" as="geometry" />
        </mxCell>
        <mxCell id="sczfLH8FIDFucL3i_VIs-33" style="edgeStyle=none;curved=1;rounded=0;orthogonalLoop=1;jettySize=auto;html=1;exitX=0;exitY=0;exitDx=0;exitDy=0;fontSize=12;startSize=8;endSize=8;endArrow=none;endFill=0;" edge="1" parent="1" source="sczfLH8FIDFucL3i_VIs-55" target="sczfLH8FIDFucL3i_VIs-18">
          <mxGeometry relative="1" as="geometry" />
        </mxCell>
        <mxCell id="sczfLH8FIDFucL3i_VIs-37" style="edgeStyle=none;curved=1;rounded=0;orthogonalLoop=1;jettySize=auto;html=1;exitX=1;exitY=0;exitDx=0;exitDy=0;entryX=0;entryY=1;entryDx=0;entryDy=0;fontSize=12;startSize=8;endSize=8;endArrow=none;endFill=0;" edge="1" parent="1" source="sczfLH8FIDFucL3i_VIs-63" target="sczfLH8FIDFucL3i_VIs-20">
          <mxGeometry relative="1" as="geometry" />
        </mxCell>
        <mxCell id="sczfLH8FIDFucL3i_VIs-141" style="edgeStyle=none;curved=1;rounded=0;orthogonalLoop=1;jettySize=auto;html=1;exitX=0;exitY=1;exitDx=0;exitDy=0;entryX=0.5;entryY=0;entryDx=0;entryDy=0;fontSize=12;startSize=8;endSize=8;endArrow=none;endFill=0;" edge="1" parent="1" source="sczfLH8FIDFucL3i_VIs-17" target="sczfLH8FIDFucL3i_VIs-138">
          <mxGeometry relative="1" as="geometry" />
        </mxCell>
        <mxCell id="sczfLH8FIDFucL3i_VIs-142" style="edgeStyle=none;curved=1;rounded=0;orthogonalLoop=1;jettySize=auto;html=1;exitX=0.25;exitY=1;exitDx=0;exitDy=0;entryX=0.5;entryY=0;entryDx=0;entryDy=0;fontSize=12;startSize=8;endSize=8;endArrow=none;endFill=0;" edge="1" parent="1" source="sczfLH8FIDFucL3i_VIs-17" target="sczfLH8FIDFucL3i_VIs-137">
          <mxGeometry relative="1" as="geometry" />
        </mxCell>
        <mxCell id="sczfLH8FIDFucL3i_VIs-143" style="edgeStyle=none;curved=1;rounded=0;orthogonalLoop=1;jettySize=auto;html=1;exitX=0.75;exitY=1;exitDx=0;exitDy=0;entryX=0;entryY=0;entryDx=0;entryDy=0;fontSize=12;startSize=8;endSize=8;endArrow=none;endFill=0;" edge="1" parent="1" source="sczfLH8FIDFucL3i_VIs-17" target="sczfLH8FIDFucL3i_VIs-136">
          <mxGeometry relative="1" as="geometry" />
        </mxCell>
        <mxCell id="sczfLH8FIDFucL3i_VIs-144" style="edgeStyle=none;curved=1;rounded=0;orthogonalLoop=1;jettySize=auto;html=1;exitX=1;exitY=0.75;exitDx=0;exitDy=0;fontSize=12;startSize=8;endSize=8;entryX=0;entryY=0.5;entryDx=0;entryDy=0;endArrow=none;endFill=0;" edge="1" parent="1" source="sczfLH8FIDFucL3i_VIs-17" target="sczfLH8FIDFucL3i_VIs-135">
          <mxGeometry relative="1" as="geometry" />
        </mxCell>
        <mxCell id="sczfLH8FIDFucL3i_VIs-17" value="Especialidad" style="whiteSpace=wrap;html=1;align=center;fillColor=#ADD8E6;" vertex="1" parent="1">
          <mxGeometry x="252" y="433" width="100" height="40" as="geometry" />
        </mxCell>
        <mxCell id="sczfLH8FIDFucL3i_VIs-180" style="edgeStyle=none;curved=1;rounded=0;orthogonalLoop=1;jettySize=auto;html=1;exitX=0;exitY=0.75;exitDx=0;exitDy=0;entryX=1;entryY=0.5;entryDx=0;entryDy=0;fontSize=12;startSize=8;endSize=8;endArrow=none;endFill=0;" edge="1" parent="1" source="sczfLH8FIDFucL3i_VIs-18" target="sczfLH8FIDFucL3i_VIs-170">
          <mxGeometry relative="1" as="geometry" />
        </mxCell>
        <mxCell id="sczfLH8FIDFucL3i_VIs-181" style="edgeStyle=none;curved=1;rounded=0;orthogonalLoop=1;jettySize=auto;html=1;exitX=0;exitY=1;exitDx=0;exitDy=0;entryX=1;entryY=0;entryDx=0;entryDy=0;fontSize=12;startSize=8;endSize=8;endArrow=none;endFill=0;" edge="1" parent="1" source="sczfLH8FIDFucL3i_VIs-18" target="sczfLH8FIDFucL3i_VIs-171">
          <mxGeometry relative="1" as="geometry" />
        </mxCell>
        <mxCell id="sczfLH8FIDFucL3i_VIs-182" style="edgeStyle=none;curved=1;rounded=0;orthogonalLoop=1;jettySize=auto;html=1;exitX=0.25;exitY=1;exitDx=0;exitDy=0;entryX=0.5;entryY=0;entryDx=0;entryDy=0;fontSize=12;startSize=8;endSize=8;endArrow=none;endFill=0;" edge="1" parent="1" source="sczfLH8FIDFucL3i_VIs-18" target="sczfLH8FIDFucL3i_VIs-172">
          <mxGeometry relative="1" as="geometry" />
        </mxCell>
        <mxCell id="sczfLH8FIDFucL3i_VIs-183" style="edgeStyle=none;curved=1;rounded=0;orthogonalLoop=1;jettySize=auto;html=1;exitX=0.5;exitY=1;exitDx=0;exitDy=0;entryX=0.5;entryY=0;entryDx=0;entryDy=0;fontSize=12;startSize=8;endSize=8;endArrow=none;endFill=0;" edge="1" parent="1" source="sczfLH8FIDFucL3i_VIs-18" target="sczfLH8FIDFucL3i_VIs-173">
          <mxGeometry relative="1" as="geometry" />
        </mxCell>
        <mxCell id="sczfLH8FIDFucL3i_VIs-184" style="edgeStyle=none;curved=1;rounded=0;orthogonalLoop=1;jettySize=auto;html=1;exitX=1;exitY=0.75;exitDx=0;exitDy=0;entryX=0;entryY=0.5;entryDx=0;entryDy=0;fontSize=12;startSize=8;endSize=8;endArrow=none;endFill=0;" edge="1" parent="1" source="sczfLH8FIDFucL3i_VIs-18" target="sczfLH8FIDFucL3i_VIs-174">
          <mxGeometry relative="1" as="geometry" />
        </mxCell>
        <mxCell id="sczfLH8FIDFucL3i_VIs-185" style="edgeStyle=none;curved=1;rounded=0;orthogonalLoop=1;jettySize=auto;html=1;exitX=1;exitY=0.5;exitDx=0;exitDy=0;entryX=0;entryY=1;entryDx=0;entryDy=0;fontSize=12;startSize=8;endSize=8;endArrow=none;endFill=0;" edge="1" parent="1" source="sczfLH8FIDFucL3i_VIs-18" target="sczfLH8FIDFucL3i_VIs-175">
          <mxGeometry relative="1" as="geometry" />
        </mxCell>
        <mxCell id="sczfLH8FIDFucL3i_VIs-186" style="edgeStyle=none;curved=1;rounded=0;orthogonalLoop=1;jettySize=auto;html=1;exitX=0.5;exitY=0;exitDx=0;exitDy=0;entryX=0.5;entryY=1;entryDx=0;entryDy=0;fontSize=12;startSize=8;endSize=8;endArrow=none;endFill=0;" edge="1" parent="1" source="sczfLH8FIDFucL3i_VIs-18" target="sczfLH8FIDFucL3i_VIs-176">
          <mxGeometry relative="1" as="geometry" />
        </mxCell>
        <mxCell id="sczfLH8FIDFucL3i_VIs-187" style="edgeStyle=none;curved=1;rounded=0;orthogonalLoop=1;jettySize=auto;html=1;exitX=0.25;exitY=0;exitDx=0;exitDy=0;entryX=0.5;entryY=1;entryDx=0;entryDy=0;fontSize=12;startSize=8;endSize=8;endArrow=none;endFill=0;" edge="1" parent="1" source="sczfLH8FIDFucL3i_VIs-18" target="sczfLH8FIDFucL3i_VIs-177">
          <mxGeometry relative="1" as="geometry" />
        </mxCell>
        <mxCell id="sczfLH8FIDFucL3i_VIs-188" style="edgeStyle=none;curved=1;rounded=0;orthogonalLoop=1;jettySize=auto;html=1;exitX=0;exitY=0.5;exitDx=0;exitDy=0;entryX=1;entryY=1;entryDx=0;entryDy=0;fontSize=12;startSize=8;endSize=8;endArrow=none;endFill=0;" edge="1" parent="1" source="sczfLH8FIDFucL3i_VIs-18" target="sczfLH8FIDFucL3i_VIs-179">
          <mxGeometry relative="1" as="geometry" />
        </mxCell>
        <mxCell id="sczfLH8FIDFucL3i_VIs-18" value="Horario_Atencion" style="whiteSpace=wrap;html=1;align=center;fillColor=#ADD8E6;" vertex="1" parent="1">
          <mxGeometry x="-307" y="-118" width="100" height="40" as="geometry" />
        </mxCell>
        <mxCell id="sczfLH8FIDFucL3i_VIs-36" style="edgeStyle=none;curved=1;rounded=0;orthogonalLoop=1;jettySize=auto;html=1;exitX=1;exitY=0;exitDx=0;exitDy=0;entryX=0.5;entryY=1;entryDx=0;entryDy=0;fontSize=12;startSize=8;endSize=8;endArrow=none;endFill=0;" edge="1" parent="1" source="sczfLH8FIDFucL3i_VIs-61" target="sczfLH8FIDFucL3i_VIs-20">
          <mxGeometry relative="1" as="geometry" />
        </mxCell>
        <mxCell id="sczfLH8FIDFucL3i_VIs-163" style="edgeStyle=none;curved=1;rounded=0;orthogonalLoop=1;jettySize=auto;html=1;exitX=0.75;exitY=0;exitDx=0;exitDy=0;fontSize=12;startSize=8;endSize=8;entryX=0.5;entryY=1;entryDx=0;entryDy=0;endArrow=none;endFill=0;" edge="1" parent="1" source="sczfLH8FIDFucL3i_VIs-19" target="sczfLH8FIDFucL3i_VIs-161">
          <mxGeometry relative="1" as="geometry" />
        </mxCell>
        <mxCell id="sczfLH8FIDFucL3i_VIs-164" style="edgeStyle=none;curved=1;rounded=0;orthogonalLoop=1;jettySize=auto;html=1;exitX=1;exitY=0.25;exitDx=0;exitDy=0;entryX=0;entryY=0.5;entryDx=0;entryDy=0;fontSize=12;startSize=8;endSize=8;endArrow=none;endFill=0;" edge="1" parent="1" source="sczfLH8FIDFucL3i_VIs-19" target="sczfLH8FIDFucL3i_VIs-160">
          <mxGeometry relative="1" as="geometry" />
        </mxCell>
        <mxCell id="sczfLH8FIDFucL3i_VIs-165" style="edgeStyle=none;curved=1;rounded=0;orthogonalLoop=1;jettySize=auto;html=1;exitX=1;exitY=0.75;exitDx=0;exitDy=0;entryX=0.5;entryY=0;entryDx=0;entryDy=0;fontSize=12;startSize=8;endSize=8;endArrow=none;endFill=0;" edge="1" parent="1" source="sczfLH8FIDFucL3i_VIs-19" target="sczfLH8FIDFucL3i_VIs-159">
          <mxGeometry relative="1" as="geometry" />
        </mxCell>
        <mxCell id="sczfLH8FIDFucL3i_VIs-166" style="edgeStyle=none;curved=1;rounded=0;orthogonalLoop=1;jettySize=auto;html=1;exitX=0.75;exitY=1;exitDx=0;exitDy=0;entryX=0.5;entryY=0;entryDx=0;entryDy=0;fontSize=12;startSize=8;endSize=8;endArrow=none;endFill=0;" edge="1" parent="1" source="sczfLH8FIDFucL3i_VIs-19" target="sczfLH8FIDFucL3i_VIs-158">
          <mxGeometry relative="1" as="geometry" />
        </mxCell>
        <mxCell id="sczfLH8FIDFucL3i_VIs-167" style="edgeStyle=none;curved=1;rounded=0;orthogonalLoop=1;jettySize=auto;html=1;exitX=0.25;exitY=1;exitDx=0;exitDy=0;entryX=1;entryY=0;entryDx=0;entryDy=0;fontSize=12;startSize=8;endSize=8;endArrow=none;endFill=0;" edge="1" parent="1" source="sczfLH8FIDFucL3i_VIs-19" target="sczfLH8FIDFucL3i_VIs-157">
          <mxGeometry relative="1" as="geometry" />
        </mxCell>
        <mxCell id="sczfLH8FIDFucL3i_VIs-168" style="edgeStyle=none;curved=1;rounded=0;orthogonalLoop=1;jettySize=auto;html=1;exitX=0;exitY=1;exitDx=0;exitDy=0;entryX=1;entryY=0.5;entryDx=0;entryDy=0;fontSize=12;startSize=8;endSize=8;endArrow=none;endFill=0;" edge="1" parent="1" source="sczfLH8FIDFucL3i_VIs-19" target="sczfLH8FIDFucL3i_VIs-156">
          <mxGeometry relative="1" as="geometry" />
        </mxCell>
        <mxCell id="sczfLH8FIDFucL3i_VIs-169" style="edgeStyle=none;curved=1;rounded=0;orthogonalLoop=1;jettySize=auto;html=1;exitX=0;exitY=0.25;exitDx=0;exitDy=0;entryX=1;entryY=1;entryDx=0;entryDy=0;fontSize=12;startSize=8;endSize=8;endArrow=none;endFill=0;" edge="1" parent="1" source="sczfLH8FIDFucL3i_VIs-19" target="sczfLH8FIDFucL3i_VIs-162">
          <mxGeometry relative="1" as="geometry" />
        </mxCell>
        <mxCell id="sczfLH8FIDFucL3i_VIs-19" value="Consultorio" style="whiteSpace=wrap;html=1;align=center;fillColor=#ADD8E6;" vertex="1" parent="1">
          <mxGeometry x="241" y="714" width="100" height="40" as="geometry" />
        </mxCell>
        <mxCell id="sczfLH8FIDFucL3i_VIs-39" style="edgeStyle=none;curved=1;rounded=0;orthogonalLoop=1;jettySize=auto;html=1;exitX=1;exitY=0.5;exitDx=0;exitDy=0;entryX=0;entryY=0.5;entryDx=0;entryDy=0;fontSize=12;startSize=8;endSize=8;endArrow=none;endFill=0;" edge="1" parent="1" source="sczfLH8FIDFucL3i_VIs-67" target="sczfLH8FIDFucL3i_VIs-22">
          <mxGeometry relative="1" as="geometry" />
        </mxCell>
        <mxCell id="sczfLH8FIDFucL3i_VIs-217" style="edgeStyle=none;curved=1;rounded=0;orthogonalLoop=1;jettySize=auto;html=1;entryX=1;entryY=0.5;entryDx=0;entryDy=0;fontSize=12;startSize=8;endSize=8;exitX=0;exitY=0.5;exitDx=0;exitDy=0;endArrow=none;endFill=0;" edge="1" parent="1" source="sczfLH8FIDFucL3i_VIs-20" target="sczfLH8FIDFucL3i_VIs-200">
          <mxGeometry relative="1" as="geometry">
            <mxPoint x="784" y="-33" as="sourcePoint" />
          </mxGeometry>
        </mxCell>
        <mxCell id="sczfLH8FIDFucL3i_VIs-218" style="edgeStyle=none;curved=1;rounded=0;orthogonalLoop=1;jettySize=auto;html=1;exitX=0.25;exitY=1;exitDx=0;exitDy=0;entryX=0.5;entryY=0;entryDx=0;entryDy=0;fontSize=12;startSize=8;endSize=8;endArrow=none;endFill=0;" edge="1" parent="1" source="sczfLH8FIDFucL3i_VIs-20" target="sczfLH8FIDFucL3i_VIs-207">
          <mxGeometry relative="1" as="geometry" />
        </mxCell>
        <mxCell id="sczfLH8FIDFucL3i_VIs-219" style="edgeStyle=none;curved=1;rounded=0;orthogonalLoop=1;jettySize=auto;html=1;exitX=0.5;exitY=1;exitDx=0;exitDy=0;entryX=0.5;entryY=0;entryDx=0;entryDy=0;fontSize=12;startSize=8;endSize=8;endArrow=none;endFill=0;" edge="1" parent="1" source="sczfLH8FIDFucL3i_VIs-20" target="sczfLH8FIDFucL3i_VIs-208">
          <mxGeometry relative="1" as="geometry" />
        </mxCell>
        <mxCell id="sczfLH8FIDFucL3i_VIs-220" style="edgeStyle=none;curved=1;rounded=0;orthogonalLoop=1;jettySize=auto;html=1;exitX=0.75;exitY=1;exitDx=0;exitDy=0;entryX=0.5;entryY=0;entryDx=0;entryDy=0;fontSize=12;startSize=8;endSize=8;endArrow=none;endFill=0;" edge="1" parent="1" source="sczfLH8FIDFucL3i_VIs-20" target="sczfLH8FIDFucL3i_VIs-204">
          <mxGeometry relative="1" as="geometry" />
        </mxCell>
        <mxCell id="sczfLH8FIDFucL3i_VIs-221" style="edgeStyle=none;curved=1;rounded=0;orthogonalLoop=1;jettySize=auto;html=1;exitX=1;exitY=1;exitDx=0;exitDy=0;entryX=0;entryY=0;entryDx=0;entryDy=0;fontSize=12;startSize=8;endSize=8;endArrow=none;endFill=0;" edge="1" parent="1" source="sczfLH8FIDFucL3i_VIs-20" target="sczfLH8FIDFucL3i_VIs-206">
          <mxGeometry relative="1" as="geometry" />
        </mxCell>
        <mxCell id="sczfLH8FIDFucL3i_VIs-222" style="edgeStyle=none;curved=1;rounded=0;orthogonalLoop=1;jettySize=auto;html=1;exitX=1;exitY=0.75;exitDx=0;exitDy=0;entryX=0;entryY=0;entryDx=0;entryDy=0;fontSize=12;startSize=8;endSize=8;endArrow=none;endFill=0;" edge="1" parent="1" source="sczfLH8FIDFucL3i_VIs-20" target="sczfLH8FIDFucL3i_VIs-214">
          <mxGeometry relative="1" as="geometry" />
        </mxCell>
        <mxCell id="sczfLH8FIDFucL3i_VIs-223" style="edgeStyle=none;curved=1;rounded=0;orthogonalLoop=1;jettySize=auto;html=1;exitX=1;exitY=1;exitDx=0;exitDy=0;entryX=0;entryY=0;entryDx=0;entryDy=0;fontSize=12;startSize=8;endSize=8;endArrow=none;endFill=0;" edge="1" parent="1" source="sczfLH8FIDFucL3i_VIs-20" target="sczfLH8FIDFucL3i_VIs-215">
          <mxGeometry relative="1" as="geometry" />
        </mxCell>
        <mxCell id="sczfLH8FIDFucL3i_VIs-224" style="edgeStyle=none;curved=1;rounded=0;orthogonalLoop=1;jettySize=auto;html=1;exitX=1;exitY=1;exitDx=0;exitDy=0;entryX=0;entryY=0;entryDx=0;entryDy=0;fontSize=12;startSize=8;endSize=8;endArrow=none;endFill=0;" edge="1" parent="1" source="sczfLH8FIDFucL3i_VIs-20" target="sczfLH8FIDFucL3i_VIs-205">
          <mxGeometry relative="1" as="geometry" />
        </mxCell>
        <mxCell id="sczfLH8FIDFucL3i_VIs-225" style="edgeStyle=none;curved=1;rounded=0;orthogonalLoop=1;jettySize=auto;html=1;exitX=1;exitY=1;exitDx=0;exitDy=0;entryX=0.5;entryY=0;entryDx=0;entryDy=0;fontSize=12;startSize=8;endSize=8;endArrow=none;endFill=0;" edge="1" parent="1" source="sczfLH8FIDFucL3i_VIs-20" target="sczfLH8FIDFucL3i_VIs-209">
          <mxGeometry relative="1" as="geometry" />
        </mxCell>
        <mxCell id="sczfLH8FIDFucL3i_VIs-226" style="edgeStyle=none;curved=1;rounded=0;orthogonalLoop=1;jettySize=auto;html=1;exitX=1;exitY=0.25;exitDx=0;exitDy=0;entryX=0;entryY=0.5;entryDx=0;entryDy=0;fontSize=12;startSize=8;endSize=8;endArrow=none;endFill=0;" edge="1" parent="1" source="sczfLH8FIDFucL3i_VIs-20" target="sczfLH8FIDFucL3i_VIs-213">
          <mxGeometry relative="1" as="geometry" />
        </mxCell>
        <mxCell id="sczfLH8FIDFucL3i_VIs-227" style="edgeStyle=none;curved=1;rounded=0;orthogonalLoop=1;jettySize=auto;html=1;exitX=1;exitY=0;exitDx=0;exitDy=0;entryX=0;entryY=0.5;entryDx=0;entryDy=0;fontSize=12;startSize=8;endSize=8;endArrow=none;endFill=0;" edge="1" parent="1" source="sczfLH8FIDFucL3i_VIs-20" target="sczfLH8FIDFucL3i_VIs-212">
          <mxGeometry relative="1" as="geometry" />
        </mxCell>
        <mxCell id="sczfLH8FIDFucL3i_VIs-231" style="edgeStyle=none;curved=1;rounded=0;orthogonalLoop=1;jettySize=auto;html=1;exitX=0.25;exitY=0;exitDx=0;exitDy=0;entryX=1;entryY=1;entryDx=0;entryDy=0;fontSize=12;startSize=8;endSize=8;endArrow=none;endFill=0;" edge="1" parent="1" source="sczfLH8FIDFucL3i_VIs-20" target="sczfLH8FIDFucL3i_VIs-201">
          <mxGeometry relative="1" as="geometry" />
        </mxCell>
        <mxCell id="sczfLH8FIDFucL3i_VIs-232" style="edgeStyle=none;curved=1;rounded=0;orthogonalLoop=1;jettySize=auto;html=1;exitX=0.5;exitY=0;exitDx=0;exitDy=0;entryX=1;entryY=1;entryDx=0;entryDy=0;fontSize=12;startSize=8;endSize=8;endArrow=none;endFill=0;" edge="1" parent="1" source="sczfLH8FIDFucL3i_VIs-20" target="sczfLH8FIDFucL3i_VIs-203">
          <mxGeometry relative="1" as="geometry" />
        </mxCell>
        <mxCell id="sczfLH8FIDFucL3i_VIs-233" style="edgeStyle=none;curved=1;rounded=0;orthogonalLoop=1;jettySize=auto;html=1;exitX=0.5;exitY=0;exitDx=0;exitDy=0;entryX=1;entryY=1;entryDx=0;entryDy=0;fontSize=12;startSize=8;endSize=8;endArrow=none;endFill=0;" edge="1" parent="1" source="sczfLH8FIDFucL3i_VIs-20" target="sczfLH8FIDFucL3i_VIs-202">
          <mxGeometry relative="1" as="geometry" />
        </mxCell>
        <mxCell id="sczfLH8FIDFucL3i_VIs-20" value="Cita" style="whiteSpace=wrap;html=1;align=center;fillColor=#ADD8E6;" vertex="1" parent="1">
          <mxGeometry x="784" y="-53" width="100" height="40" as="geometry" />
        </mxCell>
        <mxCell id="sczfLH8FIDFucL3i_VIs-38" style="edgeStyle=none;curved=1;rounded=0;orthogonalLoop=1;jettySize=auto;html=1;exitX=0.25;exitY=0;exitDx=0;exitDy=0;fontSize=12;startSize=8;endSize=8;entryX=0.75;entryY=1;entryDx=0;entryDy=0;endArrow=none;endFill=0;" edge="1" parent="1" source="sczfLH8FIDFucL3i_VIs-65" target="sczfLH8FIDFucL3i_VIs-20">
          <mxGeometry relative="1" as="geometry" />
        </mxCell>
        <mxCell id="sczfLH8FIDFucL3i_VIs-195" style="edgeStyle=none;curved=1;rounded=0;orthogonalLoop=1;jettySize=auto;html=1;exitX=0.5;exitY=1;exitDx=0;exitDy=0;fontSize=12;startSize=8;endSize=8;entryX=0.5;entryY=0;entryDx=0;entryDy=0;endArrow=none;endFill=0;" edge="1" parent="1" source="sczfLH8FIDFucL3i_VIs-21" target="sczfLH8FIDFucL3i_VIs-190">
          <mxGeometry relative="1" as="geometry" />
        </mxCell>
        <mxCell id="sczfLH8FIDFucL3i_VIs-196" style="edgeStyle=none;curved=1;rounded=0;orthogonalLoop=1;jettySize=auto;html=1;exitX=1;exitY=1;exitDx=0;exitDy=0;entryX=0;entryY=0.5;entryDx=0;entryDy=0;fontSize=12;startSize=8;endSize=8;endArrow=none;endFill=0;" edge="1" parent="1" source="sczfLH8FIDFucL3i_VIs-21" target="sczfLH8FIDFucL3i_VIs-191">
          <mxGeometry relative="1" as="geometry" />
        </mxCell>
        <mxCell id="sczfLH8FIDFucL3i_VIs-197" style="edgeStyle=none;curved=1;rounded=0;orthogonalLoop=1;jettySize=auto;html=1;exitX=1;exitY=0.5;exitDx=0;exitDy=0;entryX=0;entryY=1;entryDx=0;entryDy=0;fontSize=12;startSize=8;endSize=8;endArrow=none;endFill=0;" edge="1" parent="1" source="sczfLH8FIDFucL3i_VIs-21" target="sczfLH8FIDFucL3i_VIs-192">
          <mxGeometry relative="1" as="geometry" />
        </mxCell>
        <mxCell id="sczfLH8FIDFucL3i_VIs-198" style="edgeStyle=none;curved=1;rounded=0;orthogonalLoop=1;jettySize=auto;html=1;exitX=0.75;exitY=0;exitDx=0;exitDy=0;entryX=0.5;entryY=1;entryDx=0;entryDy=0;fontSize=12;startSize=8;endSize=8;endArrow=none;endFill=0;" edge="1" parent="1" source="sczfLH8FIDFucL3i_VIs-21" target="sczfLH8FIDFucL3i_VIs-193">
          <mxGeometry relative="1" as="geometry" />
        </mxCell>
        <mxCell id="sczfLH8FIDFucL3i_VIs-199" style="edgeStyle=none;curved=1;rounded=0;orthogonalLoop=1;jettySize=auto;html=1;exitX=0.5;exitY=0;exitDx=0;exitDy=0;entryX=1;entryY=1;entryDx=0;entryDy=0;fontSize=12;startSize=8;endSize=8;endArrow=none;endFill=0;" edge="1" parent="1" source="sczfLH8FIDFucL3i_VIs-21" target="sczfLH8FIDFucL3i_VIs-194">
          <mxGeometry relative="1" as="geometry" />
        </mxCell>
        <mxCell id="sczfLH8FIDFucL3i_VIs-21" value="Estado_Cita" style="whiteSpace=wrap;html=1;align=center;fillColor=#ADD8E6;" vertex="1" parent="1">
          <mxGeometry x="1272" y="393" width="100" height="40" as="geometry" />
        </mxCell>
        <mxCell id="sczfLH8FIDFucL3i_VIs-246" style="edgeStyle=none;curved=1;rounded=0;orthogonalLoop=1;jettySize=auto;html=1;exitX=0;exitY=1;exitDx=0;exitDy=0;entryX=1;entryY=0;entryDx=0;entryDy=0;fontSize=12;startSize=8;endSize=8;endArrow=none;endFill=0;" edge="1" parent="1" source="sczfLH8FIDFucL3i_VIs-22" target="sczfLH8FIDFucL3i_VIs-245">
          <mxGeometry relative="1" as="geometry" />
        </mxCell>
        <mxCell id="sczfLH8FIDFucL3i_VIs-247" style="edgeStyle=none;curved=1;rounded=0;orthogonalLoop=1;jettySize=auto;html=1;exitX=0.25;exitY=1;exitDx=0;exitDy=0;entryX=0.5;entryY=0;entryDx=0;entryDy=0;fontSize=12;startSize=8;endSize=8;endArrow=none;endFill=0;" edge="1" parent="1" source="sczfLH8FIDFucL3i_VIs-22" target="sczfLH8FIDFucL3i_VIs-244">
          <mxGeometry relative="1" as="geometry" />
        </mxCell>
        <mxCell id="sczfLH8FIDFucL3i_VIs-248" style="edgeStyle=none;curved=1;rounded=0;orthogonalLoop=1;jettySize=auto;html=1;exitX=0.75;exitY=1;exitDx=0;exitDy=0;entryX=0.5;entryY=0;entryDx=0;entryDy=0;fontSize=12;startSize=8;endSize=8;endArrow=none;endFill=0;" edge="1" parent="1" source="sczfLH8FIDFucL3i_VIs-22" target="sczfLH8FIDFucL3i_VIs-243">
          <mxGeometry relative="1" as="geometry" />
        </mxCell>
        <mxCell id="sczfLH8FIDFucL3i_VIs-249" style="edgeStyle=none;curved=1;rounded=0;orthogonalLoop=1;jettySize=auto;html=1;exitX=1;exitY=1;exitDx=0;exitDy=0;entryX=0;entryY=0;entryDx=0;entryDy=0;fontSize=12;startSize=8;endSize=8;endArrow=none;endFill=0;" edge="1" parent="1" source="sczfLH8FIDFucL3i_VIs-22" target="sczfLH8FIDFucL3i_VIs-242">
          <mxGeometry relative="1" as="geometry" />
        </mxCell>
        <mxCell id="sczfLH8FIDFucL3i_VIs-250" style="edgeStyle=none;curved=1;rounded=0;orthogonalLoop=1;jettySize=auto;html=1;exitX=1;exitY=0.75;exitDx=0;exitDy=0;entryX=0;entryY=0.5;entryDx=0;entryDy=0;fontSize=12;startSize=8;endSize=8;endArrow=none;endFill=0;" edge="1" parent="1" source="sczfLH8FIDFucL3i_VIs-22" target="sczfLH8FIDFucL3i_VIs-241">
          <mxGeometry relative="1" as="geometry" />
        </mxCell>
        <mxCell id="sczfLH8FIDFucL3i_VIs-252" style="edgeStyle=none;curved=1;rounded=0;orthogonalLoop=1;jettySize=auto;html=1;exitX=1;exitY=0.5;exitDx=0;exitDy=0;entryX=0;entryY=0.5;entryDx=0;entryDy=0;fontSize=12;startSize=8;endSize=8;endArrow=none;endFill=0;" edge="1" parent="1" source="sczfLH8FIDFucL3i_VIs-22" target="sczfLH8FIDFucL3i_VIs-240">
          <mxGeometry relative="1" as="geometry" />
        </mxCell>
        <mxCell id="sczfLH8FIDFucL3i_VIs-253" style="edgeStyle=none;curved=1;rounded=0;orthogonalLoop=1;jettySize=auto;html=1;exitX=1;exitY=0.25;exitDx=0;exitDy=0;entryX=0;entryY=1;entryDx=0;entryDy=0;fontSize=12;startSize=8;endSize=8;endArrow=none;endFill=0;" edge="1" parent="1" source="sczfLH8FIDFucL3i_VIs-22" target="sczfLH8FIDFucL3i_VIs-239">
          <mxGeometry relative="1" as="geometry" />
        </mxCell>
        <mxCell id="sczfLH8FIDFucL3i_VIs-254" style="edgeStyle=none;curved=1;rounded=0;orthogonalLoop=1;jettySize=auto;html=1;exitX=1;exitY=0;exitDx=0;exitDy=0;entryX=0.5;entryY=1;entryDx=0;entryDy=0;fontSize=12;startSize=8;endSize=8;endArrow=none;endFill=0;" edge="1" parent="1" source="sczfLH8FIDFucL3i_VIs-22" target="sczfLH8FIDFucL3i_VIs-238">
          <mxGeometry relative="1" as="geometry" />
        </mxCell>
        <mxCell id="sczfLH8FIDFucL3i_VIs-255" style="edgeStyle=none;curved=1;rounded=0;orthogonalLoop=1;jettySize=auto;html=1;exitX=0.75;exitY=0;exitDx=0;exitDy=0;entryX=0.5;entryY=1;entryDx=0;entryDy=0;fontSize=12;startSize=8;endSize=8;endArrow=none;endFill=0;" edge="1" parent="1" source="sczfLH8FIDFucL3i_VIs-22" target="sczfLH8FIDFucL3i_VIs-237">
          <mxGeometry relative="1" as="geometry" />
        </mxCell>
        <mxCell id="sczfLH8FIDFucL3i_VIs-256" style="edgeStyle=none;curved=1;rounded=0;orthogonalLoop=1;jettySize=auto;html=1;exitX=0.5;exitY=0;exitDx=0;exitDy=0;entryX=1;entryY=1;entryDx=0;entryDy=0;fontSize=12;startSize=8;endSize=8;endArrow=none;endFill=0;" edge="1" parent="1" source="sczfLH8FIDFucL3i_VIs-22" target="sczfLH8FIDFucL3i_VIs-236">
          <mxGeometry relative="1" as="geometry" />
        </mxCell>
        <mxCell id="sczfLH8FIDFucL3i_VIs-257" style="edgeStyle=none;curved=1;rounded=0;orthogonalLoop=1;jettySize=auto;html=1;exitX=0.25;exitY=0;exitDx=0;exitDy=0;entryX=1;entryY=0.5;entryDx=0;entryDy=0;fontSize=12;startSize=8;endSize=8;endArrow=none;endFill=0;" edge="1" parent="1" source="sczfLH8FIDFucL3i_VIs-22" target="sczfLH8FIDFucL3i_VIs-235">
          <mxGeometry relative="1" as="geometry" />
        </mxCell>
        <mxCell id="sczfLH8FIDFucL3i_VIs-258" style="edgeStyle=none;curved=1;rounded=0;orthogonalLoop=1;jettySize=auto;html=1;exitX=0;exitY=0;exitDx=0;exitDy=0;entryX=1;entryY=0.5;entryDx=0;entryDy=0;fontSize=12;startSize=8;endSize=8;endArrow=none;endFill=0;" edge="1" parent="1" source="sczfLH8FIDFucL3i_VIs-22" target="sczfLH8FIDFucL3i_VIs-234">
          <mxGeometry relative="1" as="geometry" />
        </mxCell>
        <mxCell id="sczfLH8FIDFucL3i_VIs-22" value="Notificacion" style="whiteSpace=wrap;html=1;align=center;fillColor=#ADD8E6;" vertex="1" parent="1">
          <mxGeometry x="1611" y="23" width="100" height="40" as="geometry" />
        </mxCell>
        <mxCell id="sczfLH8FIDFucL3i_VIs-26" value="" style="edgeStyle=none;curved=1;rounded=0;orthogonalLoop=1;jettySize=auto;html=1;exitX=1;exitY=0.5;exitDx=0;exitDy=0;entryX=0;entryY=0.5;entryDx=0;entryDy=0;fontSize=12;startSize=8;endSize=8;strokeColor=default;endArrow=none;endFill=0;" edge="1" parent="1" source="sczfLH8FIDFucL3i_VIs-10" target="sczfLH8FIDFucL3i_VIs-25">
          <mxGeometry relative="1" as="geometry">
            <mxPoint x="245" y="201" as="sourcePoint" />
            <mxPoint x="409" y="197" as="targetPoint" />
          </mxGeometry>
        </mxCell>
        <mxCell id="sczfLH8FIDFucL3i_VIs-25" value="tiene" style="shape=rhombus;perimeter=rhombusPerimeter;whiteSpace=wrap;html=1;align=center;fillColor=#90EE90;" vertex="1" parent="1">
          <mxGeometry x="768" y="-476" width="120" height="60" as="geometry" />
        </mxCell>
        <mxCell id="sczfLH8FIDFucL3i_VIs-32" style="edgeStyle=none;curved=1;rounded=0;orthogonalLoop=1;jettySize=auto;html=1;exitX=0.5;exitY=0;exitDx=0;exitDy=0;fontSize=12;startSize=8;endSize=8;endArrow=none;endFill=0;entryX=0.5;entryY=1;entryDx=0;entryDy=0;" edge="1" parent="1" source="sczfLH8FIDFucL3i_VIs-53" target="sczfLH8FIDFucL3i_VIs-18">
          <mxGeometry relative="1" as="geometry" />
        </mxCell>
        <mxCell id="sczfLH8FIDFucL3i_VIs-44" value="" style="edgeStyle=none;curved=1;rounded=0;orthogonalLoop=1;jettySize=auto;html=1;exitX=0.25;exitY=1;exitDx=0;exitDy=0;entryX=1;entryY=0;entryDx=0;entryDy=0;fontSize=12;startSize=8;endSize=8;endArrow=none;endFill=0;" edge="1" parent="1" source="sczfLH8FIDFucL3i_VIs-10" target="sczfLH8FIDFucL3i_VIs-43">
          <mxGeometry relative="1" as="geometry">
            <mxPoint x="469" y="-349" as="sourcePoint" />
            <mxPoint x="511" y="-86" as="targetPoint" />
          </mxGeometry>
        </mxCell>
        <mxCell id="sczfLH8FIDFucL3i_VIs-43" value="tiene" style="shape=rhombus;perimeter=rhombusPerimeter;whiteSpace=wrap;html=1;align=center;fillColor=#90EE90;" vertex="1" parent="1">
          <mxGeometry x="249" y="-383" width="120" height="60" as="geometry" />
        </mxCell>
        <mxCell id="sczfLH8FIDFucL3i_VIs-46" value="" style="edgeStyle=none;curved=1;rounded=0;orthogonalLoop=1;jettySize=auto;html=1;exitX=1;exitY=0.5;exitDx=0;exitDy=0;entryX=0;entryY=0.5;entryDx=0;entryDy=0;fontSize=12;startSize=8;endSize=8;endArrow=none;endFill=0;" edge="1" parent="1" source="sczfLH8FIDFucL3i_VIs-11" target="sczfLH8FIDFucL3i_VIs-45">
          <mxGeometry relative="1" as="geometry">
            <mxPoint x="857" y="-33" as="sourcePoint" />
            <mxPoint x="1230" y="-33" as="targetPoint" />
          </mxGeometry>
        </mxCell>
        <mxCell id="sczfLH8FIDFucL3i_VIs-45" value="registra" style="shape=rhombus;perimeter=rhombusPerimeter;whiteSpace=wrap;html=1;align=center;fillColor=#90EE90;" vertex="1" parent="1">
          <mxGeometry x="1268" y="-376" width="120" height="60" as="geometry" />
        </mxCell>
        <mxCell id="sczfLH8FIDFucL3i_VIs-48" value="" style="edgeStyle=none;curved=1;rounded=0;orthogonalLoop=1;jettySize=auto;html=1;exitX=0.5;exitY=1;exitDx=0;exitDy=0;entryX=0.5;entryY=0;entryDx=0;entryDy=0;fontSize=12;startSize=8;endSize=8;endArrow=none;endFill=0;" edge="1" parent="1" source="sczfLH8FIDFucL3i_VIs-14" target="sczfLH8FIDFucL3i_VIs-47">
          <mxGeometry relative="1" as="geometry">
            <mxPoint x="511" y="-46" as="sourcePoint" />
            <mxPoint x="430" y="89" as="targetPoint" />
          </mxGeometry>
        </mxCell>
        <mxCell id="sczfLH8FIDFucL3i_VIs-47" value="tener" style="shape=rhombus;perimeter=rhombusPerimeter;whiteSpace=wrap;html=1;align=center;fillColor=#90EE90;" vertex="1" parent="1">
          <mxGeometry x="58" y="-113" width="120" height="60" as="geometry" />
        </mxCell>
        <mxCell id="sczfLH8FIDFucL3i_VIs-50" value="" style="edgeStyle=none;curved=1;rounded=0;orthogonalLoop=1;jettySize=auto;html=1;exitX=0.75;exitY=0;exitDx=0;exitDy=0;entryX=0.5;entryY=1;entryDx=0;entryDy=0;fontSize=12;startSize=8;endSize=8;endArrow=none;endFill=0;" edge="1" parent="1" source="sczfLH8FIDFucL3i_VIs-17" target="sczfLH8FIDFucL3i_VIs-49">
          <mxGeometry relative="1" as="geometry">
            <mxPoint x="458" y="254" as="sourcePoint" />
            <mxPoint x="491" y="109" as="targetPoint" />
          </mxGeometry>
        </mxCell>
        <mxCell id="sczfLH8FIDFucL3i_VIs-49" value="ejercida" style="shape=rhombus;perimeter=rhombusPerimeter;whiteSpace=wrap;html=1;align=center;fillColor=#90EE90;" vertex="1" parent="1">
          <mxGeometry x="252" y="193" width="120" height="60" as="geometry" />
        </mxCell>
        <mxCell id="sczfLH8FIDFucL3i_VIs-52" value="" style="edgeStyle=none;curved=1;rounded=0;orthogonalLoop=1;jettySize=auto;html=1;exitX=0;exitY=1;exitDx=0;exitDy=0;entryX=0.75;entryY=0;entryDx=0;entryDy=0;fontSize=12;startSize=8;endSize=8;endArrow=none;endFill=0;" edge="1" parent="1" source="sczfLH8FIDFucL3i_VIs-14" target="sczfLH8FIDFucL3i_VIs-51">
          <mxGeometry relative="1" as="geometry">
            <mxPoint x="461" y="-46" as="sourcePoint" />
            <mxPoint x="328" y="-11" as="targetPoint" />
          </mxGeometry>
        </mxCell>
        <mxCell id="sczfLH8FIDFucL3i_VIs-51" value="configura" style="shape=rhombus;perimeter=rhombusPerimeter;whiteSpace=wrap;html=1;align=center;fillColor=#90EE90;" vertex="1" parent="1">
          <mxGeometry x="-228" y="-278" width="120" height="60" as="geometry" />
        </mxCell>
        <mxCell id="sczfLH8FIDFucL3i_VIs-54" value="" style="edgeStyle=none;curved=1;rounded=0;orthogonalLoop=1;jettySize=auto;html=1;exitX=0.5;exitY=0;exitDx=0;exitDy=0;fontSize=12;startSize=8;endSize=8;endArrow=none;endFill=0;entryX=0.5;entryY=1;entryDx=0;entryDy=0;" edge="1" parent="1" source="sczfLH8FIDFucL3i_VIs-19" target="sczfLH8FIDFucL3i_VIs-53">
          <mxGeometry relative="1" as="geometry">
            <mxPoint x="339" y="448" as="sourcePoint" />
            <mxPoint x="220" y="24" as="targetPoint" />
          </mxGeometry>
        </mxCell>
        <mxCell id="sczfLH8FIDFucL3i_VIs-53" value="usado" style="shape=rhombus;perimeter=rhombusPerimeter;whiteSpace=wrap;html=1;align=center;fillColor=#90EE90;" vertex="1" parent="1">
          <mxGeometry x="-132" y="277" width="120" height="60" as="geometry" />
        </mxCell>
        <mxCell id="sczfLH8FIDFucL3i_VIs-56" value="" style="edgeStyle=none;curved=1;rounded=0;orthogonalLoop=1;jettySize=auto;html=1;exitX=0;exitY=0;exitDx=0;exitDy=0;fontSize=12;startSize=8;endSize=8;endArrow=none;endFill=0;" edge="1" parent="1" source="sczfLH8FIDFucL3i_VIs-17" target="sczfLH8FIDFucL3i_VIs-55">
          <mxGeometry relative="1" as="geometry">
            <mxPoint x="383" y="254" as="sourcePoint" />
            <mxPoint x="233" y="24" as="targetPoint" />
          </mxGeometry>
        </mxCell>
        <mxCell id="sczfLH8FIDFucL3i_VIs-55" value="asociados" style="shape=rhombus;perimeter=rhombusPerimeter;whiteSpace=wrap;html=1;align=center;fillColor=#90EE90;" vertex="1" parent="1">
          <mxGeometry x="100" y="154" width="120" height="60" as="geometry" />
        </mxCell>
        <mxCell id="sczfLH8FIDFucL3i_VIs-58" value="" style="edgeStyle=none;curved=1;rounded=0;orthogonalLoop=1;jettySize=auto;html=1;exitX=0.5;exitY=1;exitDx=0;exitDy=0;fontSize=12;startSize=8;endSize=8;endArrow=none;endFill=0;" edge="1" parent="1" source="sczfLH8FIDFucL3i_VIs-11" target="sczfLH8FIDFucL3i_VIs-57">
          <mxGeometry relative="1" as="geometry">
            <mxPoint x="807" y="-13" as="sourcePoint" />
            <mxPoint x="742" y="61" as="targetPoint" />
          </mxGeometry>
        </mxCell>
        <mxCell id="sczfLH8FIDFucL3i_VIs-57" value="tiene" style="shape=rhombus;perimeter=rhombusPerimeter;whiteSpace=wrap;html=1;align=center;fillColor=#90EE90;" vertex="1" parent="1">
          <mxGeometry x="874" y="-278" width="120" height="60" as="geometry" />
        </mxCell>
        <mxCell id="sczfLH8FIDFucL3i_VIs-60" value="" style="edgeStyle=none;curved=1;rounded=0;orthogonalLoop=1;jettySize=auto;html=1;exitX=1;exitY=0.75;exitDx=0;exitDy=0;entryX=0;entryY=0;entryDx=0;entryDy=0;fontSize=12;startSize=8;endSize=8;endArrow=none;endFill=0;" edge="1" parent="1" source="sczfLH8FIDFucL3i_VIs-14" target="sczfLH8FIDFucL3i_VIs-59">
          <mxGeometry relative="1" as="geometry">
            <mxPoint x="561" y="-56" as="sourcePoint" />
            <mxPoint x="675" y="61" as="targetPoint" />
          </mxGeometry>
        </mxCell>
        <mxCell id="sczfLH8FIDFucL3i_VIs-59" value="atender" style="shape=rhombus;perimeter=rhombusPerimeter;whiteSpace=wrap;html=1;align=center;fillColor=#90EE90;" vertex="1" parent="1">
          <mxGeometry x="305" y="-178" width="120" height="60" as="geometry" />
        </mxCell>
        <mxCell id="sczfLH8FIDFucL3i_VIs-62" value="" style="edgeStyle=none;curved=1;rounded=0;orthogonalLoop=1;jettySize=auto;html=1;exitX=1;exitY=0;exitDx=0;exitDy=0;entryX=0.5;entryY=1;entryDx=0;entryDy=0;fontSize=12;startSize=8;endSize=8;endArrow=none;endFill=0;" edge="1" parent="1" source="sczfLH8FIDFucL3i_VIs-19" target="sczfLH8FIDFucL3i_VIs-61">
          <mxGeometry relative="1" as="geometry">
            <mxPoint x="389" y="448" as="sourcePoint" />
            <mxPoint x="725" y="101" as="targetPoint" />
          </mxGeometry>
        </mxCell>
        <mxCell id="sczfLH8FIDFucL3i_VIs-61" value="alberga" style="shape=rhombus;perimeter=rhombusPerimeter;whiteSpace=wrap;html=1;align=center;fillColor=#90EE90;" vertex="1" parent="1">
          <mxGeometry x="662" y="348" width="120" height="60" as="geometry" />
        </mxCell>
        <mxCell id="sczfLH8FIDFucL3i_VIs-64" value="" style="edgeStyle=none;curved=1;rounded=0;orthogonalLoop=1;jettySize=auto;html=1;exitX=1;exitY=0;exitDx=0;exitDy=0;entryX=0;entryY=1;entryDx=0;entryDy=0;fontSize=12;startSize=8;endSize=8;endArrow=none;endFill=0;" edge="1" parent="1" source="sczfLH8FIDFucL3i_VIs-17" target="sczfLH8FIDFucL3i_VIs-63">
          <mxGeometry relative="1" as="geometry">
            <mxPoint x="483" y="254" as="sourcePoint" />
            <mxPoint x="675" y="101" as="targetPoint" />
          </mxGeometry>
        </mxCell>
        <mxCell id="sczfLH8FIDFucL3i_VIs-63" value="asociada" style="shape=rhombus;perimeter=rhombusPerimeter;whiteSpace=wrap;html=1;align=center;fillColor=#90EE90;" vertex="1" parent="1">
          <mxGeometry x="461" y="188" width="120" height="60" as="geometry" />
        </mxCell>
        <mxCell id="sczfLH8FIDFucL3i_VIs-66" value="" style="edgeStyle=none;curved=1;rounded=0;orthogonalLoop=1;jettySize=auto;html=1;exitX=0.25;exitY=0;exitDx=0;exitDy=0;fontSize=12;startSize=8;endSize=8;entryX=0.75;entryY=1;entryDx=0;entryDy=0;endArrow=none;endFill=0;" edge="1" parent="1" source="sczfLH8FIDFucL3i_VIs-21" target="sczfLH8FIDFucL3i_VIs-65">
          <mxGeometry relative="1" as="geometry">
            <mxPoint x="873" y="368" as="sourcePoint" />
            <mxPoint x="750" y="101" as="targetPoint" />
          </mxGeometry>
        </mxCell>
        <mxCell id="sczfLH8FIDFucL3i_VIs-65" value="tiene" style="shape=rhombus;perimeter=rhombusPerimeter;whiteSpace=wrap;html=1;align=center;fillColor=#90EE90;" vertex="1" parent="1">
          <mxGeometry x="1046" y="277" width="120" height="60" as="geometry" />
        </mxCell>
        <mxCell id="sczfLH8FIDFucL3i_VIs-68" value="" style="edgeStyle=none;curved=1;rounded=0;orthogonalLoop=1;jettySize=auto;html=1;exitX=1;exitY=0.5;exitDx=0;exitDy=0;entryX=0;entryY=0.5;entryDx=0;entryDy=0;fontSize=12;startSize=8;endSize=8;endArrow=none;endFill=0;" edge="1" parent="1" source="sczfLH8FIDFucL3i_VIs-20" target="sczfLH8FIDFucL3i_VIs-67">
          <mxGeometry relative="1" as="geometry">
            <mxPoint x="775" y="81" as="sourcePoint" />
            <mxPoint x="922" y="121" as="targetPoint" />
          </mxGeometry>
        </mxCell>
        <mxCell id="sczfLH8FIDFucL3i_VIs-67" value="generar" style="shape=rhombus;perimeter=rhombusPerimeter;whiteSpace=wrap;html=1;align=center;fillColor=#90EE90;" vertex="1" parent="1">
          <mxGeometry x="1235" y="-10" width="120" height="60" as="geometry" />
        </mxCell>
        <mxCell id="sczfLH8FIDFucL3i_VIs-70" style="edgeStyle=none;curved=1;rounded=0;orthogonalLoop=1;jettySize=auto;html=1;exitX=0.5;exitY=0;exitDx=0;exitDy=0;entryX=0.712;entryY=0.905;entryDx=0;entryDy=0;entryPerimeter=0;fontSize=12;startSize=8;endSize=8;endArrow=none;endFill=0;" edge="1" parent="1" source="sczfLH8FIDFucL3i_VIs-10" target="sczfLH8FIDFucL3i_VIs-1">
          <mxGeometry relative="1" as="geometry" />
        </mxCell>
        <mxCell id="sczfLH8FIDFucL3i_VIs-79" value="dni" style="ellipse;whiteSpace=wrap;html=1;align=center;" vertex="1" parent="1">
          <mxGeometry x="1056" y="-672" width="100" height="40" as="geometry" />
        </mxCell>
        <mxCell id="sczfLH8FIDFucL3i_VIs-80" value="nombres" style="ellipse;whiteSpace=wrap;html=1;align=center;" vertex="1" parent="1">
          <mxGeometry x="946" y="-588" width="100" height="40" as="geometry" />
        </mxCell>
        <mxCell id="sczfLH8FIDFucL3i_VIs-81" value="apellido_paterno" style="ellipse;whiteSpace=wrap;html=1;align=center;" vertex="1" parent="1">
          <mxGeometry x="1215" y="-531" width="100" height="40" as="geometry" />
        </mxCell>
        <mxCell id="sczfLH8FIDFucL3i_VIs-82" value="apellido_materno" style="ellipse;whiteSpace=wrap;html=1;align=center;" vertex="1" parent="1">
          <mxGeometry x="1221" y="-481" width="100" height="40" as="geometry" />
        </mxCell>
        <mxCell id="sczfLH8FIDFucL3i_VIs-83" value="fecha_nacimiento" style="ellipse;whiteSpace=wrap;html=1;align=center;" vertex="1" parent="1">
          <mxGeometry x="1204" y="-579" width="100" height="40" as="geometry" />
        </mxCell>
        <mxCell id="sczfLH8FIDFucL3i_VIs-84" value="genero" style="ellipse;whiteSpace=wrap;html=1;align=center;" vertex="1" parent="1">
          <mxGeometry x="1186" y="-433" width="100" height="40" as="geometry" />
        </mxCell>
        <mxCell id="sczfLH8FIDFucL3i_VIs-85" value="direccion" style="ellipse;whiteSpace=wrap;html=1;align=center;" vertex="1" parent="1">
          <mxGeometry x="861" y="-358" width="100" height="40" as="geometry" />
        </mxCell>
        <mxCell id="sczfLH8FIDFucL3i_VIs-86" value="email" style="ellipse;whiteSpace=wrap;html=1;align=center;" vertex="1" parent="1">
          <mxGeometry x="1150" y="-625" width="100" height="40" as="geometry" />
        </mxCell>
        <mxCell id="sczfLH8FIDFucL3i_VIs-87" value="id_usuario" style="ellipse;whiteSpace=wrap;html=1;align=center;" vertex="1" parent="1">
          <mxGeometry x="1004" y="-628" width="100" height="40" as="geometry" />
        </mxCell>
        <mxCell id="sczfLH8FIDFucL3i_VIs-88" value="estado" style="ellipse;whiteSpace=wrap;html=1;align=center;" vertex="1" parent="1">
          <mxGeometry x="906" y="-542" width="100" height="40" as="geometry" />
        </mxCell>
        <mxCell id="sczfLH8FIDFucL3i_VIs-89" value="fecha_registro" style="ellipse;whiteSpace=wrap;html=1;align=center;" vertex="1" parent="1">
          <mxGeometry x="851" y="-406" width="100" height="40" as="geometry" />
        </mxCell>
        <mxCell id="sczfLH8FIDFucL3i_VIs-90" value="id_paciente" style="ellipse;whiteSpace=wrap;html=1;align=center;fontStyle=4;" vertex="1" parent="1">
          <mxGeometry x="1094" y="-336" width="100" height="40" as="geometry" />
        </mxCell>
        <mxCell id="sczfLH8FIDFucL3i_VIs-94" style="edgeStyle=none;curved=1;rounded=0;orthogonalLoop=1;jettySize=auto;html=1;exitX=0.75;exitY=0;exitDx=0;exitDy=0;entryX=0.65;entryY=1.004;entryDx=0;entryDy=0;entryPerimeter=0;fontSize=12;startSize=8;endSize=8;endArrow=none;endFill=0;" edge="1" parent="1" source="sczfLH8FIDFucL3i_VIs-11" target="sczfLH8FIDFucL3i_VIs-87">
          <mxGeometry relative="1" as="geometry" />
        </mxCell>
        <mxCell id="sczfLH8FIDFucL3i_VIs-95" style="edgeStyle=none;curved=1;rounded=0;orthogonalLoop=1;jettySize=auto;html=1;exitX=1;exitY=0;exitDx=0;exitDy=0;entryX=0.602;entryY=0.988;entryDx=0;entryDy=0;entryPerimeter=0;fontSize=12;startSize=8;endSize=8;endArrow=none;endFill=0;" edge="1" parent="1" source="sczfLH8FIDFucL3i_VIs-11" target="sczfLH8FIDFucL3i_VIs-79">
          <mxGeometry relative="1" as="geometry" />
        </mxCell>
        <mxCell id="sczfLH8FIDFucL3i_VIs-101" style="edgeStyle=none;curved=1;rounded=0;orthogonalLoop=1;jettySize=auto;html=1;exitX=0.75;exitY=1;exitDx=0;exitDy=0;entryX=0.323;entryY=0.062;entryDx=0;entryDy=0;entryPerimeter=0;fontSize=12;startSize=8;endSize=8;endArrow=none;endFill=0;" edge="1" parent="1" source="sczfLH8FIDFucL3i_VIs-11" target="sczfLH8FIDFucL3i_VIs-90">
          <mxGeometry relative="1" as="geometry" />
        </mxCell>
        <mxCell id="sczfLH8FIDFucL3i_VIs-103" value="id_paciente" style="ellipse;whiteSpace=wrap;html=1;align=center;" vertex="1" parent="1">
          <mxGeometry x="1578" y="-366" width="100" height="40" as="geometry" />
        </mxCell>
        <mxCell id="sczfLH8FIDFucL3i_VIs-104" value="id_telefono" style="ellipse;whiteSpace=wrap;html=1;align=center;fontStyle=4;" vertex="1" parent="1">
          <mxGeometry x="1669" y="-273" width="100" height="40" as="geometry" />
        </mxCell>
        <mxCell id="sczfLH8FIDFucL3i_VIs-105" value="numero" style="ellipse;whiteSpace=wrap;html=1;align=center;" vertex="1" parent="1">
          <mxGeometry x="1520" y="-206" width="100" height="40" as="geometry" />
        </mxCell>
        <mxCell id="sczfLH8FIDFucL3i_VIs-106" value="tipo" style="ellipse;whiteSpace=wrap;html=1;align=center;" vertex="1" parent="1">
          <mxGeometry x="1433" y="-391" width="100" height="40" as="geometry" />
        </mxCell>
        <mxCell id="sczfLH8FIDFucL3i_VIs-107" value="es_principal" style="ellipse;whiteSpace=wrap;html=1;align=center;" vertex="1" parent="1">
          <mxGeometry x="1381" y="-233" width="100" height="40" as="geometry" />
        </mxCell>
        <mxCell id="sczfLH8FIDFucL3i_VIs-113" value="id_medico" style="ellipse;whiteSpace=wrap;html=1;align=center;fontStyle=4;" vertex="1" parent="1">
          <mxGeometry x="58" y="-441" width="100" height="40" as="geometry" />
        </mxCell>
        <mxCell id="sczfLH8FIDFucL3i_VIs-114" value="dni" style="ellipse;whiteSpace=wrap;html=1;align=center;" vertex="1" parent="1">
          <mxGeometry x="39" y="-496" width="100" height="40" as="geometry" />
        </mxCell>
        <mxCell id="sczfLH8FIDFucL3i_VIs-115" value="nombres" style="ellipse;whiteSpace=wrap;html=1;align=center;" vertex="1" parent="1">
          <mxGeometry x="8" y="-536" width="100" height="40" as="geometry" />
        </mxCell>
        <mxCell id="sczfLH8FIDFucL3i_VIs-116" value="apellido_paterno" style="ellipse;whiteSpace=wrap;html=1;align=center;" vertex="1" parent="1">
          <mxGeometry x="-77" y="-565" width="100" height="40" as="geometry" />
        </mxCell>
        <mxCell id="sczfLH8FIDFucL3i_VIs-117" value="aprellido_materno" style="ellipse;whiteSpace=wrap;html=1;align=center;" vertex="1" parent="1">
          <mxGeometry x="-142" y="-533" width="100" height="40" as="geometry" />
        </mxCell>
        <mxCell id="sczfLH8FIDFucL3i_VIs-118" value="numero_colegiatura" style="ellipse;whiteSpace=wrap;html=1;align=center;" vertex="1" parent="1">
          <mxGeometry x="-199" y="-493" width="100" height="40" as="geometry" />
        </mxCell>
        <mxCell id="sczfLH8FIDFucL3i_VIs-119" value="email" style="ellipse;whiteSpace=wrap;html=1;align=center;" vertex="1" parent="1">
          <mxGeometry x="-211" y="-441" width="100" height="40" as="geometry" />
        </mxCell>
        <mxCell id="sczfLH8FIDFucL3i_VIs-120" value="telefono" style="ellipse;whiteSpace=wrap;html=1;align=center;" vertex="1" parent="1">
          <mxGeometry x="-202" y="-395" width="100" height="40" as="geometry" />
        </mxCell>
        <mxCell id="sczfLH8FIDFucL3i_VIs-121" value="id_usuario" style="ellipse;whiteSpace=wrap;html=1;align=center;" vertex="1" parent="1">
          <mxGeometry x="-191" y="-348" width="100" height="40" as="geometry" />
        </mxCell>
        <mxCell id="sczfLH8FIDFucL3i_VIs-122" value="estado" style="ellipse;whiteSpace=wrap;html=1;align=center;" vertex="1" parent="1">
          <mxGeometry x="41" y="-299" width="100" height="40" as="geometry" />
        </mxCell>
        <mxCell id="sczfLH8FIDFucL3i_VIs-123" value="fecha_registro" style="ellipse;whiteSpace=wrap;html=1;align=center;" vertex="1" parent="1">
          <mxGeometry x="-88" y="-299" width="100" height="40" as="geometry" />
        </mxCell>
        <mxCell id="sczfLH8FIDFucL3i_VIs-124" style="edgeStyle=none;curved=1;rounded=0;orthogonalLoop=1;jettySize=auto;html=1;exitX=0.75;exitY=1;exitDx=0;exitDy=0;entryX=0.385;entryY=0.021;entryDx=0;entryDy=0;entryPerimeter=0;fontSize=12;startSize=8;endSize=8;endArrow=none;endFill=0;" edge="1" parent="1" source="sczfLH8FIDFucL3i_VIs-14" target="sczfLH8FIDFucL3i_VIs-122">
          <mxGeometry relative="1" as="geometry" />
        </mxCell>
        <mxCell id="sczfLH8FIDFucL3i_VIs-125" style="edgeStyle=none;curved=1;rounded=0;orthogonalLoop=1;jettySize=auto;html=1;exitX=0.25;exitY=1;exitDx=0;exitDy=0;entryX=0.631;entryY=0.126;entryDx=0;entryDy=0;entryPerimeter=0;fontSize=12;startSize=8;endSize=8;endArrow=none;endFill=0;" edge="1" parent="1" source="sczfLH8FIDFucL3i_VIs-14" target="sczfLH8FIDFucL3i_VIs-123">
          <mxGeometry relative="1" as="geometry" />
        </mxCell>
        <mxCell id="sczfLH8FIDFucL3i_VIs-127" style="edgeStyle=none;curved=1;rounded=0;orthogonalLoop=1;jettySize=auto;html=1;exitX=0;exitY=0.75;exitDx=0;exitDy=0;entryX=0.962;entryY=0.655;entryDx=0;entryDy=0;entryPerimeter=0;fontSize=12;startSize=8;endSize=8;endArrow=none;endFill=0;" edge="1" parent="1" source="sczfLH8FIDFucL3i_VIs-14" target="sczfLH8FIDFucL3i_VIs-120">
          <mxGeometry relative="1" as="geometry" />
        </mxCell>
        <mxCell id="sczfLH8FIDFucL3i_VIs-129" style="edgeStyle=none;curved=1;rounded=0;orthogonalLoop=1;jettySize=auto;html=1;exitX=0;exitY=0.25;exitDx=0;exitDy=0;entryX=0.825;entryY=0.917;entryDx=0;entryDy=0;entryPerimeter=0;fontSize=12;startSize=8;endSize=8;endArrow=none;endFill=0;" edge="1" parent="1" source="sczfLH8FIDFucL3i_VIs-14" target="sczfLH8FIDFucL3i_VIs-118">
          <mxGeometry relative="1" as="geometry" />
        </mxCell>
        <mxCell id="sczfLH8FIDFucL3i_VIs-135" value="id_especialidad" style="ellipse;whiteSpace=wrap;html=1;align=center;fontStyle=4;" vertex="1" parent="1">
          <mxGeometry x="376" y="442" width="100" height="40" as="geometry" />
        </mxCell>
        <mxCell id="sczfLH8FIDFucL3i_VIs-136" value="codigo" style="ellipse;whiteSpace=wrap;html=1;align=center;" vertex="1" parent="1">
          <mxGeometry x="339" y="497" width="100" height="40" as="geometry" />
        </mxCell>
        <mxCell id="sczfLH8FIDFucL3i_VIs-137" value="nombre" style="ellipse;whiteSpace=wrap;html=1;align=center;" vertex="1" parent="1">
          <mxGeometry x="252" y="529" width="100" height="40" as="geometry" />
        </mxCell>
        <mxCell id="sczfLH8FIDFucL3i_VIs-138" value="descripcion" style="ellipse;whiteSpace=wrap;html=1;align=center;" vertex="1" parent="1">
          <mxGeometry x="168" y="493" width="100" height="40" as="geometry" />
        </mxCell>
        <mxCell id="sczfLH8FIDFucL3i_VIs-139" value="estado" style="ellipse;whiteSpace=wrap;html=1;align=center;" vertex="1" parent="1">
          <mxGeometry x="128" y="442" width="100" height="40" as="geometry" />
        </mxCell>
        <mxCell id="sczfLH8FIDFucL3i_VIs-140" style="edgeStyle=none;curved=1;rounded=0;orthogonalLoop=1;jettySize=auto;html=1;exitX=0;exitY=0.5;exitDx=0;exitDy=0;entryX=0.974;entryY=0.609;entryDx=0;entryDy=0;entryPerimeter=0;fontSize=12;startSize=8;endSize=8;endArrow=none;endFill=0;" edge="1" parent="1" source="sczfLH8FIDFucL3i_VIs-17" target="sczfLH8FIDFucL3i_VIs-139">
          <mxGeometry relative="1" as="geometry" />
        </mxCell>
        <mxCell id="sczfLH8FIDFucL3i_VIs-145" value="id_medico_especialidad" style="ellipse;whiteSpace=wrap;html=1;align=center;fontStyle=4;" vertex="1" parent="1">
          <mxGeometry x="443" y="90" width="145" height="40" as="geometry" />
        </mxCell>
        <mxCell id="sczfLH8FIDFucL3i_VIs-146" value="id_medico" style="ellipse;whiteSpace=wrap;html=1;align=center;" vertex="1" parent="1">
          <mxGeometry x="543" y="42" width="100" height="40" as="geometry" />
        </mxCell>
        <mxCell id="sczfLH8FIDFucL3i_VIs-147" value="id_especialidad" style="ellipse;whiteSpace=wrap;html=1;align=center;" vertex="1" parent="1">
          <mxGeometry x="525" y="-19" width="100" height="40" as="geometry" />
        </mxCell>
        <mxCell id="sczfLH8FIDFucL3i_VIs-148" value="fecha_certificacion" style="ellipse;whiteSpace=wrap;html=1;align=center;" vertex="1" parent="1">
          <mxGeometry x="380" y="-31" width="113" height="40" as="geometry" />
        </mxCell>
        <mxCell id="sczfLH8FIDFucL3i_VIs-149" value="institucion_certificadora" style="ellipse;whiteSpace=wrap;html=1;align=center;" vertex="1" parent="1">
          <mxGeometry x="230" y="42" width="135" height="40" as="geometry" />
        </mxCell>
        <mxCell id="sczfLH8FIDFucL3i_VIs-156" value="id_consultorio" style="ellipse;whiteSpace=wrap;html=1;align=center;fontStyle=4;" vertex="1" parent="1">
          <mxGeometry x="102" y="751" width="100" height="40" as="geometry" />
        </mxCell>
        <mxCell id="sczfLH8FIDFucL3i_VIs-157" value="codigo" style="ellipse;whiteSpace=wrap;html=1;align=center;" vertex="1" parent="1">
          <mxGeometry x="126" y="815" width="100" height="40" as="geometry" />
        </mxCell>
        <mxCell id="sczfLH8FIDFucL3i_VIs-158" value="nombre" style="ellipse;whiteSpace=wrap;html=1;align=center;" vertex="1" parent="1">
          <mxGeometry x="237" y="806" width="100" height="40" as="geometry" />
        </mxCell>
        <mxCell id="sczfLH8FIDFucL3i_VIs-159" value="piso" style="ellipse;whiteSpace=wrap;html=1;align=center;" vertex="1" parent="1">
          <mxGeometry x="343" y="782" width="100" height="40" as="geometry" />
        </mxCell>
        <mxCell id="sczfLH8FIDFucL3i_VIs-160" value="capacidad" style="ellipse;whiteSpace=wrap;html=1;align=center;" vertex="1" parent="1">
          <mxGeometry x="365" y="703" width="100" height="40" as="geometry" />
        </mxCell>
        <mxCell id="sczfLH8FIDFucL3i_VIs-161" value="equipamiento" style="ellipse;whiteSpace=wrap;html=1;align=center;" vertex="1" parent="1">
          <mxGeometry x="265" y="655" width="100" height="40" as="geometry" />
        </mxCell>
        <mxCell id="sczfLH8FIDFucL3i_VIs-162" value="estado" style="ellipse;whiteSpace=wrap;html=1;align=center;" vertex="1" parent="1">
          <mxGeometry x="128" y="687" width="100" height="40" as="geometry" />
        </mxCell>
        <mxCell id="sczfLH8FIDFucL3i_VIs-170" value="id_horario" style="ellipse;whiteSpace=wrap;html=1;align=center;fontStyle=4;" vertex="1" parent="1">
          <mxGeometry x="-483" y="-93" width="100" height="40" as="geometry" />
        </mxCell>
        <mxCell id="sczfLH8FIDFucL3i_VIs-171" value="id_medico" style="ellipse;whiteSpace=wrap;html=1;align=center;" vertex="1" parent="1">
          <mxGeometry x="-483" y="-40" width="100" height="40" as="geometry" />
        </mxCell>
        <mxCell id="sczfLH8FIDFucL3i_VIs-172" value="id_consultorio" style="ellipse;whiteSpace=wrap;html=1;align=center;" vertex="1" parent="1">
          <mxGeometry x="-419" width="100" height="40" as="geometry" />
        </mxCell>
        <mxCell id="sczfLH8FIDFucL3i_VIs-173" value="id_especialidad" style="ellipse;whiteSpace=wrap;html=1;align=center;" vertex="1" parent="1">
          <mxGeometry x="-324" y="-19" width="100" height="40" as="geometry" />
        </mxCell>
        <mxCell id="sczfLH8FIDFucL3i_VIs-174" value="dia_semana" style="ellipse;whiteSpace=wrap;html=1;align=center;" vertex="1" parent="1">
          <mxGeometry x="-188" y="-113" width="100" height="40" as="geometry" />
        </mxCell>
        <mxCell id="sczfLH8FIDFucL3i_VIs-175" value="hora_inicio" style="ellipse;whiteSpace=wrap;html=1;align=center;" vertex="1" parent="1">
          <mxGeometry x="-199" y="-166" width="100" height="40" as="geometry" />
        </mxCell>
        <mxCell id="sczfLH8FIDFucL3i_VIs-176" value="hora_fin" style="ellipse;whiteSpace=wrap;html=1;align=center;" vertex="1" parent="1">
          <mxGeometry x="-307" y="-213" width="100" height="40" as="geometry" />
        </mxCell>
        <mxCell id="sczfLH8FIDFucL3i_VIs-177" value="duracion_cita" style="ellipse;whiteSpace=wrap;html=1;align=center;" vertex="1" parent="1">
          <mxGeometry x="-371" y="-249" width="100" height="40" as="geometry" />
        </mxCell>
        <mxCell id="sczfLH8FIDFucL3i_VIs-178" value="estado" style="ellipse;whiteSpace=wrap;html=1;align=center;" vertex="1" parent="1">
          <mxGeometry x="-463" y="-218" width="100" height="40" as="geometry" />
        </mxCell>
        <mxCell id="sczfLH8FIDFucL3i_VIs-179" value="fecha_creacion" style="ellipse;whiteSpace=wrap;html=1;align=center;" vertex="1" parent="1">
          <mxGeometry x="-492" y="-169" width="100" height="40" as="geometry" />
        </mxCell>
        <mxCell id="sczfLH8FIDFucL3i_VIs-189" style="edgeStyle=none;curved=1;rounded=0;orthogonalLoop=1;jettySize=auto;html=1;exitX=0;exitY=0;exitDx=0;exitDy=0;entryX=0.876;entryY=0.828;entryDx=0;entryDy=0;entryPerimeter=0;fontSize=12;startSize=8;endSize=8;endArrow=none;endFill=0;" edge="1" parent="1" source="sczfLH8FIDFucL3i_VIs-18" target="sczfLH8FIDFucL3i_VIs-178">
          <mxGeometry relative="1" as="geometry" />
        </mxCell>
        <mxCell id="sczfLH8FIDFucL3i_VIs-190" value="id_estado" style="ellipse;whiteSpace=wrap;html=1;align=center;fontStyle=4;" vertex="1" parent="1">
          <mxGeometry x="1270" y="471" width="100" height="40" as="geometry" />
        </mxCell>
        <mxCell id="sczfLH8FIDFucL3i_VIs-191" value="codigo" style="ellipse;whiteSpace=wrap;html=1;align=center;" vertex="1" parent="1">
          <mxGeometry x="1431" y="423" width="100" height="40" as="geometry" />
        </mxCell>
        <mxCell id="sczfLH8FIDFucL3i_VIs-192" value="nombre" style="ellipse;whiteSpace=wrap;html=1;align=center;" vertex="1" parent="1">
          <mxGeometry x="1420" y="358" width="100" height="40" as="geometry" />
        </mxCell>
        <mxCell id="sczfLH8FIDFucL3i_VIs-193" value="descripcion" style="ellipse;whiteSpace=wrap;html=1;align=center;" vertex="1" parent="1">
          <mxGeometry x="1338" y="311" width="100" height="40" as="geometry" />
        </mxCell>
        <mxCell id="sczfLH8FIDFucL3i_VIs-194" value="color" style="ellipse;whiteSpace=wrap;html=1;align=center;" vertex="1" parent="1">
          <mxGeometry x="1219" y="318" width="100" height="40" as="geometry" />
        </mxCell>
        <mxCell id="sczfLH8FIDFucL3i_VIs-200" value="id_cita" style="ellipse;whiteSpace=wrap;html=1;align=center;fontStyle=4;" vertex="1" parent="1">
          <mxGeometry x="649" y="-53" width="100" height="40" as="geometry" />
        </mxCell>
        <mxCell id="sczfLH8FIDFucL3i_VIs-201" value="codigo_cita" style="ellipse;whiteSpace=wrap;html=1;align=center;" vertex="1" parent="1">
          <mxGeometry x="672" y="-129" width="100" height="40" as="geometry" />
        </mxCell>
        <mxCell id="sczfLH8FIDFucL3i_VIs-202" value="id_paciente" style="ellipse;whiteSpace=wrap;html=1;align=center;" vertex="1" parent="1">
          <mxGeometry x="709" y="-173" width="100" height="40" as="geometry" />
        </mxCell>
        <mxCell id="sczfLH8FIDFucL3i_VIs-203" value="id_medico" style="ellipse;whiteSpace=wrap;html=1;align=center;" vertex="1" parent="1">
          <mxGeometry x="768" y="-213" width="100" height="40" as="geometry" />
        </mxCell>
        <mxCell id="sczfLH8FIDFucL3i_VIs-204" value="id_consultorio" style="ellipse;whiteSpace=wrap;html=1;align=center;" vertex="1" parent="1">
          <mxGeometry x="869" y="126" width="100" height="40" as="geometry" />
        </mxCell>
        <mxCell id="sczfLH8FIDFucL3i_VIs-205" value="id_especialidad" style="ellipse;whiteSpace=wrap;html=1;align=center;" vertex="1" parent="1">
          <mxGeometry x="1158" y="111" width="100" height="40" as="geometry" />
        </mxCell>
        <mxCell id="sczfLH8FIDFucL3i_VIs-206" value="id_estado" style="ellipse;whiteSpace=wrap;html=1;align=center;" vertex="1" parent="1">
          <mxGeometry x="978" y="106" width="100" height="40" as="geometry" />
        </mxCell>
        <mxCell id="sczfLH8FIDFucL3i_VIs-207" value="fecha_cita" style="ellipse;whiteSpace=wrap;html=1;align=center;" vertex="1" parent="1">
          <mxGeometry x="693" y="71" width="100" height="40" as="geometry" />
        </mxCell>
        <mxCell id="sczfLH8FIDFucL3i_VIs-208" value="hora_inicio" style="ellipse;whiteSpace=wrap;html=1;align=center;" vertex="1" parent="1">
          <mxGeometry x="791" y="164" width="100" height="40" as="geometry" />
        </mxCell>
        <mxCell id="sczfLH8FIDFucL3i_VIs-209" value="hora_fin" style="ellipse;whiteSpace=wrap;html=1;align=center;" vertex="1" parent="1">
          <mxGeometry x="1061" y="138" width="100" height="40" as="geometry" />
        </mxCell>
        <mxCell id="sczfLH8FIDFucL3i_VIs-210" value="motivo_consulta" style="ellipse;whiteSpace=wrap;html=1;align=center;" vertex="1" parent="1">
          <mxGeometry x="922" y="-200" width="100" height="40" as="geometry" />
        </mxCell>
        <mxCell id="sczfLH8FIDFucL3i_VIs-211" value="observaciones" style="ellipse;whiteSpace=wrap;html=1;align=center;" vertex="1" parent="1">
          <mxGeometry x="999" y="-169" width="100" height="40" as="geometry" />
        </mxCell>
        <mxCell id="sczfLH8FIDFucL3i_VIs-212" value="motivo_cancelacion" style="ellipse;whiteSpace=wrap;html=1;align=center;" vertex="1" parent="1">
          <mxGeometry x="1072" y="-93" width="114" height="40" as="geometry" />
        </mxCell>
        <mxCell id="sczfLH8FIDFucL3i_VIs-213" value="cancelado_por" style="ellipse;whiteSpace=wrap;html=1;align=center;" vertex="1" parent="1">
          <mxGeometry x="1099" y="-46" width="100" height="40" as="geometry" />
        </mxCell>
        <mxCell id="sczfLH8FIDFucL3i_VIs-214" value="fecha_registro" style="ellipse;whiteSpace=wrap;html=1;align=center;" vertex="1" parent="1">
          <mxGeometry x="1094" y="14" width="100" height="40" as="geometry" />
        </mxCell>
        <mxCell id="sczfLH8FIDFucL3i_VIs-215" value="fecha_actualizacion" style="ellipse;whiteSpace=wrap;html=1;align=center;" vertex="1" parent="1">
          <mxGeometry x="1134" y="61" width="116" height="40" as="geometry" />
        </mxCell>
        <mxCell id="sczfLH8FIDFucL3i_VIs-216" value="recordatorio_enviado" style="ellipse;whiteSpace=wrap;html=1;align=center;" vertex="1" parent="1">
          <mxGeometry x="1078" y="-137" width="134" height="40" as="geometry" />
        </mxCell>
        <mxCell id="sczfLH8FIDFucL3i_VIs-228" style="edgeStyle=none;curved=1;rounded=0;orthogonalLoop=1;jettySize=auto;html=1;exitX=1;exitY=0;exitDx=0;exitDy=0;entryX=0;entryY=0.5;entryDx=0;entryDy=0;fontSize=12;startSize=8;endSize=8;endArrow=none;endFill=0;" edge="1" parent="1" source="sczfLH8FIDFucL3i_VIs-20" target="sczfLH8FIDFucL3i_VIs-216">
          <mxGeometry relative="1" as="geometry" />
        </mxCell>
        <mxCell id="sczfLH8FIDFucL3i_VIs-229" style="edgeStyle=none;curved=1;rounded=0;orthogonalLoop=1;jettySize=auto;html=1;exitX=0.75;exitY=0;exitDx=0;exitDy=0;entryX=0.099;entryY=0.903;entryDx=0;entryDy=0;entryPerimeter=0;fontSize=12;startSize=8;endSize=8;endArrow=none;endFill=0;" edge="1" parent="1" source="sczfLH8FIDFucL3i_VIs-20" target="sczfLH8FIDFucL3i_VIs-211">
          <mxGeometry relative="1" as="geometry" />
        </mxCell>
        <mxCell id="sczfLH8FIDFucL3i_VIs-230" style="edgeStyle=none;curved=1;rounded=0;orthogonalLoop=1;jettySize=auto;html=1;exitX=0.75;exitY=0;exitDx=0;exitDy=0;entryX=0.2;entryY=0.893;entryDx=0;entryDy=0;entryPerimeter=0;fontSize=12;startSize=8;endSize=8;endArrow=none;endFill=0;" edge="1" parent="1" source="sczfLH8FIDFucL3i_VIs-20" target="sczfLH8FIDFucL3i_VIs-210">
          <mxGeometry relative="1" as="geometry" />
        </mxCell>
        <mxCell id="sczfLH8FIDFucL3i_VIs-234" value="id_notificacion" style="ellipse;whiteSpace=wrap;html=1;align=center;fontStyle=4;" vertex="1" parent="1">
          <mxGeometry x="1473" y="-13" width="100" height="40" as="geometry" />
        </mxCell>
        <mxCell id="sczfLH8FIDFucL3i_VIs-235" value="id_cita" style="ellipse;whiteSpace=wrap;html=1;align=center;" vertex="1" parent="1">
          <mxGeometry x="1451" y="-59" width="100" height="40" as="geometry" />
        </mxCell>
        <mxCell id="sczfLH8FIDFucL3i_VIs-236" value="tipo_notificacion" style="ellipse;whiteSpace=wrap;html=1;align=center;" vertex="1" parent="1">
          <mxGeometry x="1511" y="-93" width="100" height="40" as="geometry" />
        </mxCell>
        <mxCell id="sczfLH8FIDFucL3i_VIs-237" value="destinatario_email" style="ellipse;whiteSpace=wrap;html=1;align=center;" vertex="1" parent="1">
          <mxGeometry x="1620" y="-103" width="100" height="40" as="geometry" />
        </mxCell>
        <mxCell id="sczfLH8FIDFucL3i_VIs-238" value="destinatario_nombre" style="ellipse;whiteSpace=wrap;html=1;align=center;" vertex="1" parent="1">
          <mxGeometry x="1726" y="-86" width="119" height="40" as="geometry" />
        </mxCell>
        <mxCell id="sczfLH8FIDFucL3i_VIs-239" value="asunto" style="ellipse;whiteSpace=wrap;html=1;align=center;" vertex="1" parent="1">
          <mxGeometry x="1800" y="-35" width="100" height="40" as="geometry" />
        </mxCell>
        <mxCell id="sczfLH8FIDFucL3i_VIs-240" value="mensaje" style="ellipse;whiteSpace=wrap;html=1;align=center;" vertex="1" parent="1">
          <mxGeometry x="1802.5" y="16" width="100" height="40" as="geometry" />
        </mxCell>
        <mxCell id="sczfLH8FIDFucL3i_VIs-241" value="estado_envio" style="ellipse;whiteSpace=wrap;html=1;align=center;" vertex="1" parent="1">
          <mxGeometry x="1806" y="61" width="100" height="40" as="geometry" />
        </mxCell>
        <mxCell id="sczfLH8FIDFucL3i_VIs-242" value="fecha_envio" style="ellipse;whiteSpace=wrap;html=1;align=center;" vertex="1" parent="1">
          <mxGeometry x="1767" y="106" width="100" height="40" as="geometry" />
        </mxCell>
        <mxCell id="sczfLH8FIDFucL3i_VIs-243" value="fecha_creacion" style="ellipse;whiteSpace=wrap;html=1;align=center;" vertex="1" parent="1">
          <mxGeometry x="1684" y="140" width="100" height="40" as="geometry" />
        </mxCell>
        <mxCell id="sczfLH8FIDFucL3i_VIs-244" value="intentos_envio" style="ellipse;whiteSpace=wrap;html=1;align=center;" vertex="1" parent="1">
          <mxGeometry x="1592" y="111" width="100" height="40" as="geometry" />
        </mxCell>
        <mxCell id="sczfLH8FIDFucL3i_VIs-245" value="mensaje_error" style="ellipse;whiteSpace=wrap;html=1;align=center;" vertex="1" parent="1">
          <mxGeometry x="1511" y="76" width="100" height="40" as="geometry" />
        </mxCell>
        <mxCell id="sczfLH8FIDFucL3i_VIs-260" value="(1:1)" style="text;html=1;whiteSpace=wrap;strokeColor=none;fillColor=none;align=center;verticalAlign=middle;rounded=0;fontSize=16;" vertex="1" parent="1">
          <mxGeometry x="798" y="-502" width="60" height="30" as="geometry" />
        </mxCell>
        <mxCell id="sczfLH8FIDFucL3i_VIs-261" value="(1:1)" style="text;html=1;whiteSpace=wrap;strokeColor=none;fillColor=none;align=center;verticalAlign=middle;rounded=0;fontSize=16;" vertex="1" parent="1">
          <mxGeometry x="279" y="-408" width="60" height="30" as="geometry" />
        </mxCell>
        <mxCell id="sczfLH8FIDFucL3i_VIs-263" value="(1:N)" style="text;html=1;whiteSpace=wrap;strokeColor=none;fillColor=none;align=center;verticalAlign=middle;rounded=0;fontSize=16;" vertex="1" parent="1">
          <mxGeometry x="1298" y="-403" width="60" height="30" as="geometry" />
        </mxCell>
        <mxCell id="sczfLH8FIDFucL3i_VIs-264" value="(1:N)" style="text;html=1;whiteSpace=wrap;strokeColor=none;fillColor=none;align=center;verticalAlign=middle;rounded=0;fontSize=16;" vertex="1" parent="1">
          <mxGeometry x="108" y="-137" width="60" height="30" as="geometry" />
        </mxCell>
        <mxCell id="sczfLH8FIDFucL3i_VIs-265" value="(1:N)" style="text;html=1;whiteSpace=wrap;strokeColor=none;fillColor=none;align=center;verticalAlign=middle;rounded=0;fontSize=16;" vertex="1" parent="1">
          <mxGeometry x="277" y="164" width="60" height="30" as="geometry" />
        </mxCell>
        <mxCell id="sczfLH8FIDFucL3i_VIs-266" value="(1:N)" style="text;html=1;whiteSpace=wrap;strokeColor=none;fillColor=none;align=center;verticalAlign=middle;rounded=0;fontSize=16;" vertex="1" parent="1">
          <mxGeometry x="-211" y="-303" width="60" height="30" as="geometry" />
        </mxCell>
        <mxCell id="sczfLH8FIDFucL3i_VIs-267" value="(1:N)" style="text;html=1;whiteSpace=wrap;strokeColor=none;fillColor=none;align=center;verticalAlign=middle;rounded=0;fontSize=16;" vertex="1" parent="1">
          <mxGeometry x="-82" y="257" width="60" height="30" as="geometry" />
        </mxCell>
        <mxCell id="sczfLH8FIDFucL3i_VIs-268" value="(1:N)" style="text;html=1;whiteSpace=wrap;strokeColor=none;fillColor=none;align=center;verticalAlign=middle;rounded=0;fontSize=16;" vertex="1" parent="1">
          <mxGeometry x="116" y="124" width="60" height="30" as="geometry" />
        </mxCell>
        <mxCell id="sczfLH8FIDFucL3i_VIs-269" value="(1:N)" style="text;html=1;whiteSpace=wrap;strokeColor=none;fillColor=none;align=center;verticalAlign=middle;rounded=0;fontSize=16;" vertex="1" parent="1">
          <mxGeometry x="904" y="-303" width="60" height="30" as="geometry" />
        </mxCell>
        <mxCell id="sczfLH8FIDFucL3i_VIs-270" value="(1:N)" style="text;html=1;whiteSpace=wrap;strokeColor=none;fillColor=none;align=center;verticalAlign=middle;rounded=0;fontSize=16;" vertex="1" parent="1">
          <mxGeometry x="335" y="-203" width="60" height="30" as="geometry" />
        </mxCell>
        <mxCell id="sczfLH8FIDFucL3i_VIs-271" value="(1:N)" style="text;html=1;whiteSpace=wrap;strokeColor=none;fillColor=none;align=center;verticalAlign=middle;rounded=0;fontSize=16;" vertex="1" parent="1">
          <mxGeometry x="685" y="323" width="60" height="30" as="geometry" />
        </mxCell>
        <mxCell id="sczfLH8FIDFucL3i_VIs-272" value="(1:N)" style="text;html=1;whiteSpace=wrap;strokeColor=none;fillColor=none;align=center;verticalAlign=middle;rounded=0;fontSize=16;" vertex="1" parent="1">
          <mxGeometry x="491" y="163" width="60" height="30" as="geometry" />
        </mxCell>
        <mxCell id="sczfLH8FIDFucL3i_VIs-273" value="(1:N)" style="text;html=1;whiteSpace=wrap;strokeColor=none;fillColor=none;align=center;verticalAlign=middle;rounded=0;fontSize=16;" vertex="1" parent="1">
          <mxGeometry x="1076" y="250" width="60" height="30" as="geometry" />
        </mxCell>
        <mxCell id="sczfLH8FIDFucL3i_VIs-274" value="(1:N)" style="text;html=1;whiteSpace=wrap;strokeColor=none;fillColor=none;align=center;verticalAlign=middle;rounded=0;fontSize=16;" vertex="1" parent="1">
          <mxGeometry x="1265" y="-36" width="60" height="30" as="geometry" />
        </mxCell>
      </root>
    </mxGraphModel>
  </diagram>
</mxfile>
